<?xml version="1.0" encoding="UTF-8"?>
<svg id="Layer_1" data-name="Layer 1" xmlns="http://www.w3.org/2000/svg" xmlns:xlink="http://www.w3.org/1999/xlink" viewBox="0 0 968.95 148.31">
  <defs>
    <style>
      .cls-1 {
        fill: none;
      }

      .cls-2 {
        fill: #fff;
      }

      .cls-3 {
        clip-path: url(#clippath);
      }
    </style>
    <clipPath id="clippath">
      <rect class="cls-1" width="968.95" height="148.31"/>
    </clipPath>
    <symbol id="logo-white" viewBox="0 0 968.95 148.31">
      <g class="cls-3">
        <g id="light">
          <path class="cls-2" d="M623.5,88.47c-8.06,7.73-12.8,12.52-18.09,15.34-.05.02-2.02,1-2.02,1-.02-.09,1.38-2.27,1.42-2.44,5.19-2.63,15.6-12.97,17.98-15.17,0,0,.69,1.23.71,1.26ZM644.92,86.7c-1.61-4.01-9.5-1.27-12.06-2.93-3.58-2.88,4.35-9.51.05-1.75,3.3-3.57,6.25-6.05-1.16-5.67-5.77-.08-11.43,8.24-3.3,9.63,1.54.75,11.14-1.56,8.07,2.24-35.02,25.72-4.5,29.51,4.96,17.59-1.32.13-2.48.97-5.03,1.68-11.12,2.36,9.89-16.26,8.47-20.8ZM284.74,40.09c-5.05-2.61-10.28-.54-14.25,3.26-14,13.39-26.11,28.27-38.12,43.64-3.09-11.1-28.19-.98-36.09,9.83-2.47,3.38-5.93,7.89-3.8,11.76,2.79,5.06,12.41,4.46,17.79,1.1l-3.17.46c-.91.13-1.87.01-2.66-.47-1.07-.66-1.95-2.02-.42-4.8,4.68-8.46,25.73-27.56,26.11-19.31.31,6.69-11.09,12.55-10.93,22.43.08,4.44,8.34,5.22,10.6,2.96-.46-3.7.45-6.26,2.97-9.5,16.47-21.12,32.82-41.61,51.97-61.36ZM176.82,107.94c-1.73-.83-1.48-2.62-.94-3.89,6.32-14.68,39.92-52.78,51.33-63.7-5.19-2.64-10.46-.57-14.45,3.17-13.36,12.51-24.75,26.41-36.08,40.36-1.53,1.88-7.44,8.82-10.78,14.74-1.25,2.23-3.32,7.07-2.91,9.66.82,5.15,8.94,4.38,13.1,2.88,2.38-.85,4.04-1.88,6.16-2.88l-.1-2.07s-3.6,2.55-5.33,1.73ZM837.77,82.75c-4.46-.55-8.26-.65-13.11,4.26-1.22-2.53-3.66-4.92-6.64-4.74-25.38,1.51-38.01,22.99-31.81,27.69,4.47,3.4,10.81,2.43,14.55-.19-2.5-.6-5.27-.67-5.67-1.76-1.76-4.88,21.97-28.14,26.43-23.06,4.19,4.77-13.71,15.94-9.78,24.74,3.78,4.91,14.1,2.17,17.13-2.56-2.54.11-5.4.95-6.5-1.49l16.3-20.72c.65-.83.15-2.05-.9-2.18ZM930.62,80.4s-.54,1.69-.66,2.22c-.38,1.69-2.59,5.97-2.59,5.97l-4.81,12.14c-1.79,3.98-6.44,7.8-10.36,9.41-2.29.94-5.97-.26-6.41-2.18-1.28-5.56,5.79-5.95,5.5-10.58-.08-1.27-2.76-3.14-4.06-3.14-5.09.02-8.04,4.11-8.52,8.14-.54,4.5,2.75,8.35,7.66,9.34,9.88,1.99,23.99-1.14,27.45-11.26,1.61-4.69.53-9.1-.89-13.48-.56-1.75.16-3.67,1.76-4.59,2.29-1.33,5.23-3.25,5.59-4.5,1.26-4.42-8.11-.91-9.66,2.52ZM783.97,66.91c-.71,1.73-1.65,5.6,1.38,5.45,3.01-.15,7.15-3.38,8.83-5.71.81-1.12.91-2.12.55-2.91-2.21-4.92-9.5.1-10.76,3.17ZM768.51,107.42c0-2.24,1.82-4.46,2.86-5.96,1.4-2.03,2.89-4,4.42-5.93,3.04-3.83,6.26-7.51,9.43-11.22.72-.84-2.38-1.3-2.83-1.35-1.32-.15-2.68-.08-3.99.13-2.78.45-5.38,1.73-7.47,3.6-4.36,3.9-8.52,8.51-11.77,13.37-1.76,2.63-4.6,6.62-2.75,9.89,1.47,2.6,5.26,2.5,7.8,2.16,3.48-.47,7.1-1.68,9.99-3.69.66-.46,1.69-1.19,1.81-2.04-1.05-.09-2.53.29-3.4.88-1.22.83-4.1,1.69-4.1.16ZM174.94,64.67c-.68-7.06-12.34-1.31-12.05,3.52,1.88,7.77,11.91,1.94,12.05-3.52ZM66.77,40.26c-9.61,1.02-37.12,13.72-38.19,32.41-.42,7.27,4.77,12.32,12.08,11.96,15.12-.75,30.21-15.92,24.26-28.52,1.45,17.3-34.2,42.2-32.01,15.9,2.28-13.4,22.39-28.58,37.54-29.47,7.57-.44,11.43,6.28,9.9,13.7-4.63,22.42-45.56,57.65-32.75,55.99,8.53-2.73,17.55-10,21.79-17.28,15.93-18.36,44.12-59.67-2.62-54.69ZM279.16,84.43c-6.32-3.45-12.63-.63-16.59,4.78-3.75,5.13-14.47,14.38-11.68,20.58,1.79,3.99,9.34,2.3,12.59,1.1,3.29-1.21,6.49-3.27,9.28-5.86-4.29,1.29-6.99,2.41-10.29,2.83,2.4-8.92,10.61-15.1,16.69-23.43ZM327.21,83.75c-.85-.15-1.68-.17-2.47-.06-2.01.26-3.82,1.28-5.37,2.74-2.48,2.33-4.8,5.29-6.65,8.15-.88,1.36-1.43,2.94-2.27,4.3-.47.77-1.05,1.47-1.83,2.02-.2.14-.4.3-.61.46-.24.18-.48.36-.72.54-.09.06-.17.13-.26.19-.51.38-.96.73-1.28.95-.05.04-.1.07-.14.1-.07.05-.14.1-.21.15-1.15.84-2.32,1.66-3.51,2.38-1.94,1.19-3.94,2.14-6.04,2.58-1.14.24-2.32.33-3.53.22-.5-.05-.84-.2-1.06-.45-1.18-1.31,1.27-5.06,2.25-6.88.65-1.08,1.33-2.09,2.11-3.17.08-.11.16-.23.24-.34.07-.11.15-.21.23-.3,0-.01.01-.02.02-.03,2.84-3.89,6.24-7.61,9.05-11.43,1.74-3.09-7.68-1.36-8.08-1.54-5.82,2.75-21.6,19.13-17.72,25.11,2.29,3.53,8.74,3.44,14.23,1.59,4.62-1.55,9.18-3.8,12.99-6.39.22-.15.45-.31.68-.47.32-.23,3.68-2.53,4.36-3.28l.22.08c.27.69.84,1.25,1.48,1.63.74.43,1.58.65,2.41.82.15.03.32.05.42-.07.09-.12.03-.3-.05-.43-.42-.69-1.12-1.15-1.74-1.68-.01,0-.02-.02-.02-.02-.04-.05-.07-.08-.11-.11l-.08-.06c-.26-.22-.5-.48-.68-.78l.08-.08,4.96-5.21c1.87-1.79,3.67-3.64,5.33-5.6.06-.07.12-.14.17-.21,1.23-1.47,2.38-3.01,3.41-4.63.13-.21.25-.51.07-.68-.07-.07-.18-.09-.28-.11ZM698.27,107.33c-3.04,2.02-6.01.17-4.84-1.78,3.99-6.83,9.82-14.27,15.39-21.07.52-.64.11-1.6-.71-1.66-6.91-.54-9.34.49-12.71,3.82-1.7-3.32-4.62-4.49-8.24-4.48-9.56.02-26.24,7.72-31.87,20.17-.62,1.39-1.4,4.26-.43,5.88,4.11,6.86,16.96,2.4,19.26.3-2.7,1.18-5.29.95-6.72.54-1.68-.49-2.71-1.28-2.01-2.84,3.77-8.38,20.4-24.28,26.61-21.65,1,.42,1.01,3.49.41,4.4l-8.61,13.08c-2.52,3.16-1.23,9.45,3.7,10.07,7.14.89,11.04-1.62,12.16-2.94l3.93-3.92c2.55-2.69,4.83-4.91,5.46-5.99,2.43-2.4-2.71,2.23-5.99,4.91-2.29,1.87-4.78,3.18-4.78,3.18ZM748.47,82.8c-1.22.61-2.25,1.81-2.73,3.12-.82,2.25-.59,4.73-.92,7.11-1.08,7.71-8,13.41-15.28,16.18-1.72.66-3.87,1.13-5.25-.09-1.85-1.63-.75-4.65.51-6.77,14.15-23.9,33.26-44.38,50.94-65.8,4.27-5.17,8.46-9.92,14.82-12.53,2.57-1.06,6.06-1.5,7.68.76,1.14,1.59.73,3.89-.43,5.46s-.48,1.65.96-.04,2.04-4.34.75-6.16c-1.27-1.8-3.79-2.15-5.99-2.04-9.4.47-17.25,6.23-23.85,12.46-19.8,18.7-39.12,39.91-54.38,62.5-2.11,3.13-4.21,6.96-2.87,10.49.87,2.29,3.08,3.88,5.45,4.51s4.88.41,7.29-.04c11.68-2.2,22.11-10.25,27.2-20.99.67-1.42,1.27-2.94,1.23-4.51s-.87-3.22-2.33-3.8c-.93-.37-1.91-.25-2.8.19ZM126.5,50.41c.38.35.73.73.78,1.24.57,5.42-4.94,8.28-8.18,13.27,5.97-2.69,12.13-9.29,9.02-15.04-1.22-2.26-4.67-2.57-7.33-1.37-10.98,4.98-14.61,15.99-18.55,26.54l-4.47,11.95c-2.86,7.66-5.54,15.17-8.93,23.03-.44,1.03.26,2.21,1.38,2.25,23.83.79,25.76-71.55,36.29-61.87ZM161.46,83.45c-6.53-1.25-12.22-1.03-19.26,7.63-7.06,8.69-14.44,17.79-7.28,20.71,2.17.88,7.31.53,10.16-.62,8.9-3.58,1.6-1.99,1.32-3.12-5.58-3.55,18.37-23.97,15.06-24.61ZM151.64,40.11c1.64-.69,3.35,2.72,3.22,4.49-1.38,19.48-31.32,36.8-41.62,51.29,5.77-3.61,8.8-5.71,16.36-11.78,11.41-9.19,36.28-29.15,32.61-39.28-1.92-5.29-7.01-6.24-10.57-4.73ZM643.53,42.56c-.06-.01-.12-.02-.18-.02-4.43-.53-9.11-.19-13.42.95-3.06.81-5.93,1.99-8.71,3.49-2.64,1.43-5.18,3.05-7.67,4.75-2.72,1.85-5.37,3.79-7.98,5.79-2.55,1.95-5.05,3.95-7.53,5.98-2.13,1.75-4.23,3.52-6.32,5.32-1.46,1.26-2.91,2.53-4.35,3.82-.54.48-1.08.97-1.62,1.46-3.3-6.69-10.36-13.21-18.21-13.21s-12.85,2.6-17.31,9.26c-5.43,8.11-3.22,19.6,4.48,25.26,6.69-3.16-2.66-8.83,2.19-21.88,2.8-7.54,11.28-10.5,18.51-6.73,6.84,3.58,11.04,10.7,11.53,19.7.22,4.08,0,4.93,0,4.93,2.89-3.67.01-14.16-.1-14.52-.22-.7-.51-1.58-.51-1.58.01-.01.02-.02.04-.03.68-.61,1.37-1.22,2.07-1.83,1.55-1.36,3.12-2.7,4.7-4.04,2.17-1.84,4.36-3.65,6.57-5.43,2.53-2.04,5.09-4.05,7.69-6.01,2.64-1.99,5.31-3.92,8.05-5.77,2.48-1.67,5.02-3.28,7.66-4.71,3.65-1.98,7.44-3.19,11.6-3.44.23-.01.58.04.81-.04-2.47.82-4.89,1.85-7.22,3.01-4.09,2.05-7.77,4.84-11.13,7.92-3.37,3.08-6.44,6.46-9.48,9.86-4.55,5.08-18.33,23.59-21.15,29.37l-11.67,18,3.66.07c12.04.28,13.34-1.68,17.22-7.86.65-1.03,1.3-2.07,1.95-3.1,2.7-4.27,5.42-8.52,8.19-12.75,2.74-4.2,5.53-8.37,8.36-12.5,2.83-4.13,5.72-8.22,8.67-12.27,2.94-4.03,6-7.97,9.01-11.95,2.63-3.48,6.67-6.8,11.1-7.5,1.46-.23,4-.35,4.03-.34.08.03-.19-.86-3.53-1.44ZM583.14,76.47s-.52-1.13-.5-1.04c-.01-.09-8.19,7.59-13.01,11.52-14.96,12.18-33.96,27-54.47,22.63-1.97-.42-4.73-2.35-5.01-3.88-.99-5.35,7.07-5.23,6.38-11.72-.26-2.41-3.44-4.36-6.15-4.3-5.08.11-8.45,3.69-9.45,7.68-2.77,10.88,9.58,14.57,17.97,14.88,17.79.65,29.94-4.7,43.15-16.03,2.63-2.26,18.72-17.21,21.09-19.74ZM883.19,84.4c-7.51,3.23-18.75,11.3-25.25,16.3,1.51-4.72,10.66-10.29,8.63-15.9-2.64-4.19-9.86-2.85-13.43-.47-2.55,1.98-2.93,3.72-3.37,4.14,15.27-7.88-7.51,13.98-8.59,18.6-1.43,2.71-2.44,4.04.93,4.49,6.35.86,9.78-2.62,16.47-9.19,5.25-2.54,28.01-20.55,28.36-15.72.14,1.95-11.72,14.6-11.72,14.6-8.85,10.91,4.65,13.16,12.43,9.27,4.49-2.24,6.68-4.6,4.89-4.36-.52.07-3.59,1.66-3.9,1.85-1.96,1.21-3.98-1.26-1.62-3.83,3.22-5.09,8.8-9.99,11.07-15.6,1.72-8.53-10.2-6.77-14.91-4.17ZM849.78,88.47c-.07.03-.12.06-.19.1.07,0,.13-.04.19-.1ZM389.24,85.57c-6.89,2.73-15.09,1.47-21.81-2.21-1.31-.72-2.75-1.15-4.23-1.28-4.28-.38-9.16.43-13.87,2.07-12.23,4.25-23.32,14.1-19.85,23.16.15.38.37.76.65,1.11,2.31,3.49,9.16,5.78,20.72,1.61-2.95.66-9.67,1.54-10.9.08-.21-.26-.48-.45-.67-.71-2.16-4.6,12.36-20.98,20.82-24.85.47-.21.93-.4,1.38-.56,1.64-.57,3.47-.38,4.95.52,5.44,3.29,13.33,3.21,19.34,3.47-18.29,9.81-16.75,31.33,9.76,22.05-10.99,2.51-14.81.29-8.29-9.77,5.37-7.71,21.41-25.37,28.43-10.8.47-10.73-18.61-6.98-26.43-3.88ZM431.64,108.04c.84-4.84,17.76-26.93,26.39-22.42-7.35-12.43-44.68,11.23-34.44,23.04.01,0,.01.01.01.01,5.17,5.26,12.19,3.95,20.49,1.29-3.36.2-12.54,3.13-12.45-1.92ZM426.71,25.31c36.78-3.66,47.9,34.29,32.34,62.44.64,6.84-.67,12.02-4.61,17.54,11.16-10.28,19.57-22.82,20.88-38.67,3.09-26.92-23.69-46.79-48.61-41.31Z"/>
        </g>
      </g>
    </symbol>
  </defs>
  <use width="968.95" height="148.31" xlink:href="#logo-white"/>
</svg>