<?xml version="1.0" encoding="UTF-8"?>
<svg xmlns="http://www.w3.org/2000/svg" viewBox="0 0 968.95 148.31">
  <defs>
    <style>
      .cls-1 {
        mix-blend-mode: multiply;
      }

      .cls-1, .cls-2 {
        opacity: .2;
      }

      .cls-3 {
        isolation: isolate;
      }

      .cls-4 {
        fill: #fff;
      }

      .cls-5 {
        fill: none;
        stroke: #000;
        stroke-miterlimit: 10;
      }

      .cls-6 {
        opacity: .5;
      }

      .cls-2 {
        mix-blend-mode: screen;
      }
    </style>
  </defs>
  <g class="cls-3">
    <g id="Layer_1" data-name="Layer 1">
      <g>
        <g class="cls-6">
          <path d="M551.38,91.84c-3.32-5.08-4.2-10.56-3.42-15.39-.04.46-.06.93-.07,1.41-.26,5.63,1.34,10.55,3.49,13.98ZM555.85,64.19c3.89-1.71,8.59-1.45,12.74.79-4.57-2.97-9.08-2.86-12.74-.79ZM579.08,84.35c-.07-1.14-.18-2.25-.33-3.31.34,2.76.4,5.86.21,8.69.15-1.8.2-3.67.12-5.38ZM107.19,59.76c.62-1.9,1.34-3.79,2.14-5.47,1.08-2.26,2.25-3.8,3.36-4.74-2.83,2.11-4.35,6.25-5.5,10.21ZM117.19,49.63c.71,1.56.25,4.48-2.35,8.06,1.19-1.45,2.13-2.95,2.56-4.43.43-1.52.32-2.78-.21-3.63ZM418.2,105.07c-.21,1.02-.01,1.76.52,2.18-.52-.43-.72-1.16-.52-2.18ZM418.2,105.07c.07-.39.21-.81.4-1.28-.2.47-.33.89-.4,1.28ZM419.12,102.73c-.2.36-.37.7-.5,1.02.14-.32.3-.66.5-1.02ZM189.55,105.27c.51-1.78,2.73-4.97,5.69-8.39-2.98,3.32-5.24,6.45-5.69,8.39ZM191.03,107.7c.81.31,1.79.25,2.86-.06-1.08.31-2.06.36-2.86.06ZM214.19,83c-.14-.04-.28-.07-.43-.1-.76-.14-1.93.24-3.35,1.01,1.46-.68,2.74-1.03,3.78-.91ZM216.62,86.2c-.41,1.82-2.92,5.25-5.95,8.62,2.86-3.02,5.52-6.25,5.95-8.62ZM215.54,83.53c.55.46.95,1.19,1.14,2.26.07-.94-.26-1.72-1.14-2.26ZM650.52,105.27c.51-1.78,2.73-4.97,5.69-8.39-2.98,3.32-5.24,6.45-5.69,8.39ZM654.86,107.64c-.71.2-1.38.3-1.98.25.61.05,1.27-.04,1.98-.25ZM675.16,83c-.14-.04-.28-.07-.43-.1-.74-.14-1.86.22-3.23.95,1.41-.64,2.65-.97,3.66-.85ZM677.59,86.2c-.41,1.82-2.92,5.25-5.95,8.62,2.86-3.02,5.52-6.25,5.95-8.62ZM676.51,83.53c.55.46.95,1.19,1.14,2.22.06-.92-.27-1.68-1.14-2.22ZM791.86,105.27c.51-1.78,2.73-4.97,5.69-8.39-2.98,3.32-5.24,6.45-5.69,8.39ZM796.2,107.64c-.71.2-1.38.3-1.98.25.61.05,1.27-.04,1.98-.25ZM816.5,83c-.14-.04-.28-.07-.43-.1-.74-.14-1.86.22-3.23.95,1.41-.64,2.65-.97,3.66-.85ZM818.93,86.2c-.41,1.82-2.92,5.25-5.95,8.62,2.86-3.02,5.52-6.25,5.95-8.62ZM817.85,83.53c.55.46.95,1.19,1.14,2.22.06-.92-.27-1.68-1.14-2.22ZM723.54,105.79c-1.53.85-4.65,2.44-7.23,2.7,2.22,0,4.8-1.13,7.23-2.7ZM730.46,99.84c.31-.36.59-.71.83-1.03-.28.35-.56.7-.83,1.03ZM152.07,46.33c-.75,6.66-9.09,16.03-27.13,30.82-12.84,10.56-26.38,21.34-35.1,29.9-1.51,1.51-4.55,4.49-8.12,4.49-3.79,0-2.71-2.98-1.84-4.28,5.29-8.3,8.63-22.99,12.03-32.33-.97.43-64.49,51.94-55.9,33.26,8.61-9.42,55.67-62.05,25.19-65.76-15.74-.06-35.34,15.06-37.32,30.23-.65,5.52,1.25,10.23,6.99,10.56,10.66.17,28.01-17.42,23.39-28.27,1.99.22,2.79,3.06,2.98,6.44-.72,12.22-13.22,23.23-26.7,23.13-18.31-2.69-10.96-23.99,2.39-33.21,12.99-10.83,47.52-18.27,50.04,3.96-.77,15.79-18.82,34.2-28.71,45.17l.11.16c9.62-7.03,28.25-20.49,38.35-28.33,9.67-36.42,47.4-29.74,12.07-3.24-2.44,10.08-5.74,24.59-10.94,31.58l.11.16c11.79-12.09,57.52-44.62,49.45-61.75-7.48-2.88,10.32-3.12,8.66,7.31ZM105.27,66.31c4.59-3.03,7.64-5.98,9.55-8.59.01-.01.01-.02.02-.03,2.6-3.58,3.06-6.5,2.35-8.06-.69-1.54-2.5-1.78-4.5-.08-1.11.94-2.28,2.48-3.36,4.74-.8,1.68-1.52,3.57-2.14,5.47-.76,2.29-1.39,4.59-1.92,6.55ZM149.91,63.38c-1.02,2.33-.77,5.53.16,6.83,2.7,1.05,17.05-9.28,7.75-10.67-3.74,0-6.5.65-7.91,3.84ZM547.11,43.88c-.16,2.12-1.13,3.9-1.62,3.74-.32-.16.33-1.3.49-3.41.49-6.98-7.26-13.32-20.74-13.32-15.01,0-22.16,4.39-30.77,12.19-6.82,6.33-21.39,24.36-34.39,40.78-5.25,6.61-12.67,16.74-13.92,19.01-.81,1.41-.81,2.71-.16,3.2.81.65,2.54.22,3.95-.43,1.63-.7,4.39-2.6,6.99-4.71,3.42-2.76,6.02-5.04,7.91-6.77l-.07-.04c.65-.6,1.68-1.52,2.17-1.03.49.48-.43,1.41-1.46,2.38-2.01,1.95-6.66,6.01-9.75,8.45-5.74,4.44-10.23,6.93-15.49,6.93-6.36.58-8.11-5.51-4.71-9.69l-.16-.16c-4.33,3.96-12.24,9.75-19.93,9.86-9.31.78-10.63-7.87-5.82-13.85-4.08,3.45-10.37,9.45-16.06,6.49-4.22,3.25-13.7,7.31-20.25,7.31-13.44.22-14.23-9.77-7.2-17.12l-.16-.16c-5.14,3.94-12.45,13.4-20,9.97-4.22,3.25-13.7,7.31-20.25,7.31-13.44.22-14.23-9.77-7.2-17.12l-.16-.16c-4.57,4.3-14.97,13.05-20.05,5.57-12.01,12.89-48.23,19.31-25.13-6.24l-.27-.27c-9.11,7.01-17.07,16.39-30.11,17.98-16.97-1.74,5.14-22.46,9.75-26.27-13.52,5.46-25.45,25.95-40.69,26.54-6.37.59-8.1-5.52-4.71-9.69l-.16-.16c-4.22,3.74-12.02,9.75-19.82,9.86-11.06.63-10.47-9.23-3.74-15.71l-.16-.16c-7.19,6.32-16.19,15.5-27.19,15.87-13.91-1.22-2.97-14.71,2.55-21.55l-.16-.16c-5.44,4.79-10.34,9.88-16.41,14.67-4.59,4.45-20.86,12.14-22.58,2.44.78-7.51,12.11-18.39,15.6-21.34-4.92,1.03-13.38,10.7-18.09,12.46,2.93-5.57,17.44-16.33,26.1-15.81,5.47,0,6.23.6,4.39,2.6-2.65,2.8-24.02,26.28-11.59,21.66,10.16-5.94,15.74-13.07,25.94-21.23,6.6-6.62,40.63-56.44,51.67-45.23-3.73,2.62-66.58,71.53-47.23,66.46,10.87-5.33,18.46-16.47,30.65-21.01,4.87-2.41,22.43-8.26,21.01,1.95l.16.11c5.98-6.93,41.72-58.77,52.48-47.72-1.98.95-81.65,89.8-42.08,61.76,11.12-8.18,16.99-18.67,31.81-19.55,5.14,0,5.41.81,3.84,2.6-1.72,2.38-24.44,26.45-11.75,21.77,9.53-4.79,19.67-14.34,27.52-21.29,1.47-1.24,2.93-1.95,8.45-1.95,4.01,0,4.5.65,3.41,2.06-3.45,5.34-15.77,16.69-13.32,22.49,6.06,1.28,15.09-5.91,19.11-10.13,2.8-24.01,28.73-17.4,2.17,1.29,5.57,6.94,14.65-3.91,19.68-7.2,6.89-4.44,20.17-12.68,28.6-8.99-20.13,7.76-37.65,45.24-5.2,16.95-.79-3.45,4.61-10.84,7.91-12.24.59-1.53-.87-4.27-.43-5.03,11.27,1.92,5.54,14.41-2.76,20.69,7.8,1.69,13.61-7.94,19.5-11.37,6.89-4.44,20.17-12.68,28.6-8.99-20.13,7.76-37.65,45.24-5.2,16.95-.79-3.45,4.61-10.84,7.91-12.24.59-1.53-.87-4.27-.43-5.03,11.27,1.92,5.54,14.41-2.76,20.69,5.39,1.94,12.06-5.47,15.43-8.18.98-.9,1.78-1.53,2.23-.8,1.12-1.1,2.35-2.16,3.63-3.16,5.26-4.23,15.39-9.54,24.86-9.21,4.66.22,5.85,3.09,5.09,5.74l.16.11c3.63-5.04,9.15-12.13,13.43-17.01,6.5-7.54,15.49-16.36,26.86-25.3,9.43-7.15,26.76-18.57,41.92-18.57,13.48,0,19.33,8.93,18.36,17.87ZM216.68,85.79c-.19-1.07-.59-1.8-1.14-2.26h0c-.37-.3-.8-.47-1.29-.52-.02-.01-.03-.01-.05-.01-1.04-.12-2.32.23-3.78.91h0c-4.43,2.14-10.3,7.48-14.71,12.46-.14.17-.29.34-.45.51-2.96,3.42-5.18,6.61-5.69,8.39-.01.03-.01.06-.02.09-.01.03-.01.07-.02.09-.02.08-.03.16-.04.23-.04.25-.03.46.03.62.08.14.16.27.25.4.09.12.18.23.28.33.19.2.41.37.64.5.11.06.23.12.36.17.8.3,1.78.25,2.86-.06.2-.05.4-.12.6-.19.26-.09.53-.2.81-.32h.01c.19-.09.38-.18.58-.28.04-.01.08-.03.12-.05.09-.05.18-.1.28-.15.18-.09.37-.19.56-.3.34-.18.68-.38,1.03-.6.29-.18.58-.36.87-.55.44-.29.88-.59,1.32-.9.14-.1.29-.21.43-.31.29-.22.58-.43.86-.63.14-.12.28-.22.42-.32.42-.32.84-.65,1.24-.96.26-.21.53-.42.78-.63.51-.41,1-.8,1.46-1.17,1.75-1.57,3.63-3.47,5.34-5.38.03-.03.06-.05.07-.08,3.03-3.37,5.54-6.8,5.95-8.62.02-.1.04-.18.05-.26,0-.04.01-.08.01-.12v-.02h0ZM445.08,85.82c.17-2.11-1.13-2.92-2.92-2.92-3.25,0-9.31,4.71-15.27,10.56-.2.19-.39.37-.58.56-.19.18-.37.36-.55.55-.23.22-.45.45-.67.67-.65.66-1.25,1.29-1.79,1.9-.15.16-.3.32-.43.48-.56.63-1.07,1.24-1.52,1.81-.09.12-.18.23-.26.34-.09.11-.17.22-.24.32-.2.26-.38.5-.54.74-.11.16-.22.33-.34.48,0,.03-.03.05-.05.08-.17.27-.33.52-.48.77t-.01,0c-.05.1-.11.19-.16.28-.05.1-.11.19-.15.28-.2.36-.36.7-.5,1.02-.01.01-.01.03-.02.04-.19.47-.33.89-.4,1.28-.2,1.02,0,1.75.52,2.18.19.16.42.28.7.36.83.24,2.02.13,3.46-.35.48-.14.98-.34,1.5-.57.36-.16.73-.33,1.1-.53.18-.09.37-.18.56-.29.29-.15.58-.32.87-.49.65-.38,1.32-.81,2.01-1.29.26-.17.52-.36.78-.55.31-.23.63-.46.95-.72.05-.04.11-.08.16-.13.28-.2.55-.42.84-.66.26-.21.52-.43.78-.66.41-.35.82-.71,1.23-1.09.15-.14.31-.28.46-.42.49-.45.98-.92,1.48-1.4,1.64-1.6,3.3-3.38,4.76-5.11.3-.35.58-.69.85-1.03.52-.64,1.01-1.27,1.44-1.87.1-.14.2-.27.3-.41.71-1.01,1.28-1.93,1.65-2.71.06-.12.11-.23.15-.33.12-.28.21-.53.26-.76.02-.07.03-.14.04-.2.02-.08.03-.15.03-.22ZM806.52,44.21c.48-6.99-7.15-13-19.34-13-34.31-1.36-55.78,41.47-75.39,66.03l.27.16c8.7-7.17,16.86-15.85,30-16.35h-.01c14.46,1.34,5.23,15.76-2.93,21.84-17.58,14.12-45.24,5.33-19.38-2.11,8.92-2.07,15.06-3.07,17.92-11.86.65-1.79,1.24-4.88-1.52-4.88-10.44,1.69-23.85,15.24-32.28,23.72-1.42,2.25-14,3.93-11.09-.32,3-5.41,7.68-12.13,12.03-17.66l-.16-.11c-9.12,7.44-19.71,20.82-31.74,21.22-6.85.32-7.99-5.58-4.71-9.69l-.16-.16c-4.22,3.74-12.02,9.75-19.82,9.86-10.85.52-10.81-8.91-3.74-15.71l-.16-.16c-2.91,2.64-6.16,5.64-10.3,8.83-10.9,11.06-35.45,8.35-15.81-9.26,10.97-10.08,17.08-10.6.32-10.89-8.66,8.58-19.41,21.62-33.08,22.53-2.28,2.66-4.77,3.68-10.45,4.28-6.63.72-3.57-2.38-2.49-4.72-6.49-.69-15.89-4-21.23-8.18-5.96,4.39-19.67,13.38-34.94,14.52-12.68.97-23.89-2.93-23.89-11.92-.88-10.73,15.32-15.08,15.98-5.04.22,4-6.56,5.48-6.66,9.48,5.71,14.23,39.69-1.33,47.89-8.35-28.31-22.5,10.61-55.65,28.38-24.26,15.76-14.93,31.65-31.24,52.92-32.22,5.96.25,9.53,1.15,9.21,4.23-9.83-7.34-17.39,7.49-23.72,14.95-10.08,13.98-20.91,30.5-30.17,45.61,12.11-1.13,22.7-13.53,30.97-21.56-5.24-5.3,7.87-11.66,11.48-6.89-13.49,10.86,7.52,3.48,7.64,9.64,1.83,2.05-21.56,23.85-8.61,19.88,11.06-5.96,18.19-16.27,30.22-20.86,5.24-2.51,21.85-8.13,21.17,1.73,4.11-4.27,5.25-4.98,10.34-4.98,4.6-.05,5.25.65,3.63,2.6-1.62,2.54-24.04,26.01-10.57,21.45,15.04-9.49,26.65-21.69,37.97-35.74,15.86-16.93,39.91-41.64,68.13-43.55,28.12.64,16.03,30.53,17.88,17.87ZM552.82,93.84c1.76-1.34,3.68-2.88,5.68-4.54.75-.63,1.51-1.26,2.28-1.91.76-.65,1.54-1.31,2.31-1.98.44-.38.87-.76,1.31-1.14.88-.76,1.75-1.52,2.62-2.3,2.18-1.92,4.32-3.84,6.33-5.67.53-.49,1.06-.97,1.58-1.44.51-.47,1.02-.94,1.51-1.39-1.86-3.94-4.65-6.74-7.76-8.43-.01,0-.02,0-.03-.02-.01-.01-.02-.01-.03-.02s-.02-.01-.03-.02c-4.15-2.24-8.85-2.5-12.74-.79h0c-4.15,1.82-7.34,5.89-7.87,12.19,0,.02,0,.05,0,.07-.04.46-.06.93-.07,1.41-.26,5.63,1.34,10.55,3.49,13.98.09.16.19.31.3.45.02.03.04.06.06.09.01.01.02.03.03.04.02.03.03.05.05.08.11.17.22.33.35.49.2.3.43.58.65.85ZM578.96,89.73c.19-2.83.13-5.93-.21-8.69-.03-.22-.06-.43-.09-.64-.3-2.12-.77-4-1.42-5.37-7.28,6.65-16.13,14.71-23.18,20.26,4.22,4.48,12.4,7.94,19.23,8.89,1.3-2.28,3.47-5.69,4.12-6.83h0c.13-.26.25-.56.36-.88.58-1.58.97-3.8,1.16-6.25.02-.16.03-.32.04-.49ZM585.66,84.92c1.05-1.54,2.14-3.12,3.26-4.72.95-1.35,1.92-2.71,2.92-4.07s2.02-2.72,3.06-4.08c1.04-1.36,2.1-2.7,3.18-4.04,1.08-1.33,2.17-2.65,3.28-3.94.59-.69,1.18-1.37,1.78-2.04.59-.67,1.19-1.34,1.8-1.99.42-.45.83-.9,1.25-1.34.36-.39.73-.77,1.1-1.15.05-.05.1-.1.16-.16.42-.42.84-.85,1.26-1.27.42-.42.85-.84,1.27-1.24.43-.41.85-.81,1.28-1.21.4-.38.81-.75,1.22-1.11.22-.21.45-.41.68-.6.22-.2.44-.39.67-.59.43-.36.86-.73,1.29-1.08.3-.25.6-.5.91-.74.3-.24.61-.48.91-.72.02,0,.04-.02.06-.04.41-.3.81-.61,1.22-.91.05-.04.11-.08.16-.12.02-.01.04-.03.06-.04.04-.03.07-.05.11-.08.45-.33.9-.64,1.35-.94.29-.2.58-.39.87-.57.66-.43,1.32-.84,1.98-1.22.28-.16.56-.32.84-.47.31-.17.62-.34.94-.5.31-.16.62-.32.94-.46.28-.14.57-.27.86-.4.17-.08.35-.15.52-.23.24-.1.47-.19.7-.28.29-.12.58-.23.88-.33.05-.02.09-.03.14-.05.24-.09.48-.17.73-.24.58-.19,1.15-.35,1.73-.49v-.16c-21.14.87-38.04,18.81-52.21,32.34,2.33,5.71,2.53,14.32,1.19,19.98,1.62-2.59,3.42-5.37,5.35-8.25.1-.15.2-.3.3-.45ZM677.65,85.75c-.19-1.03-.59-1.76-1.14-2.22h-.01c-.37-.3-.79-.47-1.28-.52h0s-.03-.01-.05-.01c-1.01-.12-2.25.21-3.66.85-.04.02-.08.04-.12.06h-.01c-4.43,2.14-10.3,7.48-14.71,12.46-.14.17-.29.34-.45.51-2.96,3.42-5.18,6.61-5.69,8.39,0,.03-.01.06-.02.09-.01.03-.02.07-.02.09-.02.08-.03.16-.04.23-.01.05-.02.1-.01.14-.02.19-.01.35.04.48.31.57.71.97,1.17,1.23.11.06.23.12.36.17.09.03.18.07.28.09.09.03.19.05.29.06.1.02.21.03.31.04.6.05,1.27-.05,1.98-.25.1-.03.2-.05.3-.09.1-.03.2-.06.3-.1.26-.09.53-.2.81-.32h.01c.19-.09.38-.18.58-.28.04-.01.08-.03.12-.05.09-.05.18-.1.28-.15.18-.09.37-.19.56-.3.34-.18.68-.38,1.03-.6.29-.18.58-.36.87-.55.44-.29.88-.59,1.32-.9.14-.1.29-.21.43-.31.29-.22.58-.43.86-.63.14-.11.28-.22.42-.32.42-.32.84-.65,1.24-.96.26-.21.53-.42.78-.63.51-.41,1-.8,1.46-1.17,1.75-1.57,3.63-3.47,5.34-5.38.03-.03.05-.05.07-.08,3.03-3.37,5.54-6.8,5.95-8.62.02-.1.04-.18.05-.26,0-.04.01-.08.01-.12v-.07ZM731.29,98.81c-.35.2-.79.39-1.32.58-.11.04-.23.08-.35.12-.16.06-.33.11-.5.17-.12.04-.25.08-.38.12-.18.06-.37.11-.56.17-.14.05-.28.09-.43.13-.19.05-.39.1-.59.16-.09.02-.18.05-.27.08-.75.2-1.54.41-2.36.62-.23.06-.47.12-.7.19-.06.01-.13.03-.19.05-.23.06-.46.12-.69.18-.8.21-1.6.43-2.39.66-.26.07-.52.15-.78.23-.39.12-.77.24-1.14.36-.25.08-.49.17-.73.25-.21.07-.41.14-.61.22-.72.27-1.4.55-1.99.85-.19.1-.38.19-.55.29-.26.15-.5.3-.72.46-.22.15-.42.31-.59.48-.06.06-.12.12-.18.19-.06.06-.11.12-.16.19-.05.06-.1.12-.14.19-.06.1-.12.19-.16.29-.03.06-.05.12-.07.18-.03.06-.04.12-.06.18-.03.18-.05.36-.03.54.66,1.36,2.05,1.71,3.66,1.55,2.58-.26,5.7-1.85,7.23-2.7.04-.02.08-.04.11-.06.06-.04.12-.07.17-.1,2.16-1.4,4.12-3,5.96-5.04.1-.1.2-.2.29-.31.13-.14.26-.29.39-.44.27-.33.55-.68.83-1.03ZM783.42,63.38c-1.02,2.33-.77,5.53.16,6.83,2.7,1.05,17.05-9.28,7.75-10.67-3.74,0-6.5.65-7.91,3.84ZM948.1,93.17c-5.18,11.51-46.82,28.61-49.54,8.51-4.41,4.83-25.02,15.65-25.19,2.98-1.84-3.9,23.47-25.68,7.64-18.91-10.15,5.33-21.28,15-30.54,22.32-1.04,1.61-13.66,3.93-10.77-.7,2.68-5.49,10.31-14.4,14.19-19.66.82-1.14,1.14-1.95.6-2.44-8.02,1.34-17.49,13.84-24.76,18.63-7.06,7.69-27.93,11.3-20.2-2.76l-.16-.16c-4.22,3.74-12.02,9.75-19.82,9.86-10.85.52-10.81-8.91-3.74-15.71l-.16-.16c-23.27,25.24-49.85,19.26-17.01-10.07-4.92,1.03-13.38,10.7-18.09,12.46,2.92-5.56,17.45-16.34,26.1-15.81,5.47,0,6.23.6,4.39,2.6-4.73,6.17-15.75,15.44-15.17,22.26,8.47-.13,16.13-11.85,23.24-15.98,5.55-3.92,30.76-17.2,31.35-3.9,4.11-4.27,5.25-4.98,10.34-4.98,4.6-.05,5.25.65,3.63,2.6-4.13,4.94-11.13,13.12-14.36,18.68-2.84,7.69,7.69.92,10.78-1.94,9.86-7.21,17.4-18.71,29.74-19.87,14.24,1.54-2.26,15.72-5.36,20.81l.27.27c8.2-6.37,22.98-20.57,35.69-21.07,15.48,1.16-1.98,16.28-4.77,21.56-4.34,9.3,10.06-.73,12.41-3.13.91-6.54,11.75-9.65,12.41-3.04.05,3.4-6.02,4.89-5.8,8.83,2.41,7.77,10.92,2.76,14.95-4.49,3.36-5.36,5.85-14.78,7.64-17.22l-.11-.16c-3.98,3.15-11.88,10.6-16.47,11.21,3.87-4.63,13.47-9.56,17.88-14.3.8-2.17,4.77-6,7.53-5.52,7.15.21-1.72,5.46-3.96,6.83-2.88,6.13,7.55,13.7-4.33,24.26,5.25-1.61,14.5-8.87,17.44-11.81.8-.64,1.6-1.34,2.09-.88ZM818.99,85.75c-.19-1.03-.59-1.76-1.14-2.22h0c-.37-.3-.79-.47-1.28-.52h-.01s-.03-.01-.05-.01c-1.01-.12-2.25.21-3.66.85-.04.02-.08.04-.12.06h0c-4.43,2.14-10.3,7.48-14.71,12.46-.14.17-.29.34-.45.51-2.96,3.42-5.18,6.61-5.69,8.39,0,.03-.01.06-.02.09-.01.03-.02.07-.02.09-.02.08-.03.16-.04.23-.01.05-.02.1-.01.14-.02.19-.01.35.04.48.31.57.71.97,1.17,1.23.11.06.23.12.36.17.09.03.18.07.28.09.09.03.19.05.29.06.1.02.21.03.31.04.6.05,1.27-.05,1.98-.25.1-.03.2-.05.3-.09.1-.03.2-.06.3-.1.26-.09.53-.2.81-.32h.01c.19-.09.38-.18.58-.28.04-.01.08-.03.12-.05.09-.05.18-.1.28-.15.18-.09.37-.19.56-.3.34-.18.68-.38,1.03-.6.29-.18.58-.36.87-.55.44-.29.88-.59,1.32-.9.14-.1.29-.21.43-.31.29-.22.58-.43.86-.63.14-.11.28-.22.42-.32.42-.32.84-.65,1.24-.96.26-.21.53-.42.78-.63.51-.41,1-.8,1.46-1.17,1.75-1.57,3.63-3.47,5.34-5.38.03-.03.05-.05.07-.08,3.03-3.37,5.54-6.8,5.95-8.62.02-.1.04-.18.05-.26,0-.04.01-.08.01-.12v-.07ZM948.12,93.13v.05s-.01-.01-.02-.01c.01,0,.01-.03.02-.04Z"/>
        </g>
        <g class="cls-6">
          <path class="cls-4" d="M551.38,91.84c-3.32-5.08-4.2-10.56-3.42-15.39-.04.46-.06.93-.07,1.41-.26,5.63,1.34,10.55,3.49,13.98ZM555.85,64.19c3.89-1.71,8.59-1.45,12.74.79-4.57-2.97-9.08-2.86-12.74-.79ZM579.08,84.35c-.07-1.14-.18-2.25-.33-3.31.34,2.76.4,5.86.21,8.69.15-1.8.2-3.67.12-5.38ZM107.19,59.76c.62-1.9,1.34-3.79,2.14-5.47,1.08-2.26,2.25-3.8,3.36-4.74-2.83,2.11-4.35,6.25-5.5,10.21ZM117.19,49.63c.71,1.56.25,4.48-2.35,8.06,1.19-1.45,2.13-2.95,2.56-4.43.43-1.52.32-2.78-.21-3.63ZM418.2,105.07c-.21,1.02-.01,1.76.52,2.18-.52-.43-.72-1.16-.52-2.18ZM418.2,105.07c.07-.39.21-.81.4-1.28-.2.47-.33.89-.4,1.28ZM419.12,102.73c-.2.36-.37.7-.5,1.02.14-.32.3-.66.5-1.02ZM189.55,105.27c.51-1.78,2.73-4.97,5.69-8.39-2.98,3.32-5.24,6.45-5.69,8.39ZM191.03,107.7c.81.31,1.79.25,2.86-.06-1.08.31-2.06.36-2.86.06ZM214.19,83c-.14-.04-.28-.07-.43-.1-.76-.14-1.93.24-3.35,1.01,1.46-.68,2.74-1.03,3.78-.91ZM216.62,86.2c-.41,1.82-2.92,5.25-5.95,8.62,2.86-3.02,5.52-6.25,5.95-8.62ZM215.54,83.53c.55.46.95,1.19,1.14,2.26.07-.94-.26-1.72-1.14-2.26ZM650.52,105.27c.51-1.78,2.73-4.97,5.69-8.39-2.98,3.32-5.24,6.45-5.69,8.39ZM654.86,107.64c-.71.2-1.38.3-1.98.25.61.05,1.27-.04,1.98-.25ZM675.16,83c-.14-.04-.28-.07-.43-.1-.74-.14-1.86.22-3.23.95,1.41-.64,2.65-.97,3.66-.85ZM677.59,86.2c-.41,1.82-2.92,5.25-5.95,8.62,2.86-3.02,5.52-6.25,5.95-8.62ZM676.51,83.53c.55.46.95,1.19,1.14,2.22.06-.92-.27-1.68-1.14-2.22ZM791.86,105.27c.51-1.78,2.73-4.97,5.69-8.39-2.98,3.32-5.24,6.45-5.69,8.39ZM796.2,107.64c-.71.2-1.38.3-1.98.25.61.05,1.27-.04,1.98-.25ZM816.5,83c-.14-.04-.28-.07-.43-.1-.74-.14-1.86.22-3.23.95,1.41-.64,2.65-.97,3.66-.85ZM818.93,86.2c-.41,1.82-2.92,5.25-5.95,8.62,2.86-3.02,5.52-6.25,5.95-8.62ZM817.85,83.53c.55.46.95,1.19,1.14,2.22.06-.92-.27-1.68-1.14-2.22ZM723.54,105.79c-1.53.85-4.65,2.44-7.23,2.7,2.22,0,4.8-1.13,7.23-2.7ZM730.46,99.84c.31-.36.59-.71.83-1.03-.28.35-.56.7-.83,1.03ZM152.07,46.33c-.75,6.66-9.09,16.03-27.13,30.82-12.84,10.56-26.38,21.34-35.1,29.9-1.51,1.51-4.55,4.49-8.12,4.49-3.79,0-2.71-2.98-1.84-4.28,5.29-8.3,8.63-22.99,12.03-32.33-.97.43-64.49,51.94-55.9,33.26,8.61-9.42,55.67-62.05,25.19-65.76-15.74-.06-35.34,15.06-37.32,30.23-.65,5.52,1.25,10.23,6.99,10.56,10.66.17,28.01-17.42,23.39-28.27,1.99.22,2.79,3.06,2.98,6.44-.72,12.22-13.22,23.23-26.7,23.13-18.31-2.69-10.96-23.99,2.39-33.21,12.99-10.83,47.52-18.27,50.04,3.96-.77,15.79-18.82,34.2-28.71,45.17l.11.16c9.62-7.03,28.25-20.49,38.35-28.33,9.67-36.42,47.4-29.74,12.07-3.24-2.44,10.08-5.74,24.59-10.94,31.58l.11.16c11.79-12.09,57.52-44.62,49.45-61.75-7.48-2.88,10.32-3.12,8.66,7.31ZM105.27,66.31c4.59-3.03,7.64-5.98,9.55-8.59.01-.01.01-.02.02-.03,2.6-3.58,3.06-6.5,2.35-8.06-.69-1.54-2.5-1.78-4.5-.08-1.11.94-2.28,2.48-3.36,4.74-.8,1.68-1.52,3.57-2.14,5.47-.76,2.29-1.39,4.59-1.92,6.55ZM149.91,63.38c-1.02,2.33-.77,5.53.16,6.83,2.7,1.05,17.05-9.28,7.75-10.67-3.74,0-6.5.65-7.91,3.84ZM547.11,43.88c-.16,2.12-1.13,3.9-1.62,3.74-.32-.16.33-1.3.49-3.41.49-6.98-7.26-13.32-20.74-13.32-15.01,0-22.16,4.39-30.77,12.19-6.82,6.33-21.39,24.36-34.39,40.78-5.25,6.61-12.67,16.74-13.92,19.01-.81,1.41-.81,2.71-.16,3.2.81.65,2.54.22,3.95-.43,1.63-.7,4.39-2.6,6.99-4.71,3.42-2.76,6.02-5.04,7.91-6.77l-.07-.04c.65-.6,1.68-1.52,2.17-1.03.49.48-.43,1.41-1.46,2.38-2.01,1.95-6.66,6.01-9.75,8.45-5.74,4.44-10.23,6.93-15.49,6.93-6.36.58-8.11-5.51-4.71-9.69l-.16-.16c-4.33,3.96-12.24,9.75-19.93,9.86-9.31.78-10.63-7.87-5.82-13.85-4.08,3.45-10.37,9.45-16.06,6.49-4.22,3.25-13.7,7.31-20.25,7.31-13.44.22-14.23-9.77-7.2-17.12l-.16-.16c-5.14,3.94-12.45,13.4-20,9.97-4.22,3.25-13.7,7.31-20.25,7.31-13.44.22-14.23-9.77-7.2-17.12l-.16-.16c-4.57,4.3-14.97,13.05-20.05,5.57-12.01,12.89-48.23,19.31-25.13-6.24l-.27-.27c-9.11,7.01-17.07,16.39-30.11,17.98-16.97-1.74,5.14-22.46,9.75-26.27-13.52,5.46-25.45,25.95-40.69,26.54-6.37.59-8.1-5.52-4.71-9.69l-.16-.16c-4.22,3.74-12.02,9.75-19.82,9.86-11.06.63-10.47-9.23-3.74-15.71l-.16-.16c-7.19,6.32-16.19,15.5-27.19,15.87-13.91-1.22-2.97-14.71,2.55-21.55l-.16-.16c-5.44,4.79-10.34,9.88-16.41,14.67-4.59,4.45-20.86,12.14-22.58,2.44.78-7.51,12.11-18.39,15.6-21.34-4.92,1.03-13.38,10.7-18.09,12.46,2.93-5.57,17.44-16.33,26.1-15.81,5.47,0,6.23.6,4.39,2.6-2.65,2.8-24.02,26.28-11.59,21.66,10.16-5.94,15.74-13.07,25.94-21.23,6.6-6.62,40.63-56.44,51.67-45.23-3.73,2.62-66.58,71.53-47.23,66.46,10.87-5.33,18.46-16.47,30.65-21.01,4.87-2.41,22.43-8.26,21.01,1.95l.16.11c5.98-6.93,41.72-58.77,52.48-47.72-1.98.95-81.65,89.8-42.08,61.76,11.12-8.18,16.99-18.67,31.81-19.55,5.14,0,5.41.81,3.84,2.6-1.72,2.38-24.44,26.45-11.75,21.77,9.53-4.79,19.67-14.34,27.52-21.29,1.47-1.24,2.93-1.95,8.45-1.95,4.01,0,4.5.65,3.41,2.06-3.45,5.34-15.77,16.69-13.32,22.49,6.06,1.28,15.09-5.91,19.11-10.13,2.8-24.01,28.73-17.4,2.17,1.29,5.57,6.94,14.65-3.91,19.68-7.2,6.89-4.44,20.17-12.68,28.6-8.99-20.13,7.76-37.65,45.24-5.2,16.95-.79-3.45,4.61-10.84,7.91-12.24.59-1.53-.87-4.27-.43-5.03,11.27,1.92,5.54,14.41-2.76,20.69,7.8,1.69,13.61-7.94,19.5-11.37,6.89-4.44,20.17-12.68,28.6-8.99-20.13,7.76-37.65,45.24-5.2,16.95-.79-3.45,4.61-10.84,7.91-12.24.59-1.53-.87-4.27-.43-5.03,11.27,1.92,5.54,14.41-2.76,20.69,5.39,1.94,12.06-5.47,15.43-8.18.98-.9,1.78-1.53,2.23-.8,1.12-1.1,2.35-2.16,3.63-3.16,5.26-4.23,15.39-9.54,24.86-9.21,4.66.22,5.85,3.09,5.09,5.74l.16.11c3.63-5.04,9.15-12.13,13.43-17.01,6.5-7.54,15.49-16.36,26.86-25.3,9.43-7.15,26.76-18.57,41.92-18.57,13.48,0,19.33,8.93,18.36,17.87ZM216.68,85.79c-.19-1.07-.59-1.8-1.14-2.26h0c-.37-.3-.8-.47-1.29-.52-.02-.01-.03-.01-.05-.01-1.04-.12-2.32.23-3.78.91h0c-4.43,2.14-10.3,7.48-14.71,12.46-.14.17-.29.34-.45.51-2.96,3.42-5.18,6.61-5.69,8.39-.01.03-.01.06-.02.09-.01.03-.01.07-.02.09-.02.08-.03.16-.04.23-.04.25-.03.46.03.62.08.14.16.27.25.4.09.12.18.23.28.33.19.2.41.37.64.5.11.06.23.12.36.17.8.3,1.78.25,2.86-.06.2-.05.4-.12.6-.19.26-.09.53-.2.81-.32h.01c.19-.09.38-.18.58-.28.04-.01.08-.03.12-.05.09-.05.18-.1.28-.15.18-.09.37-.19.56-.3.34-.18.68-.38,1.03-.6.29-.18.58-.36.87-.55.44-.29.88-.59,1.32-.9.14-.1.29-.21.43-.31.29-.22.58-.43.86-.63.14-.12.28-.22.42-.32.42-.32.84-.65,1.24-.96.26-.21.53-.42.78-.63.51-.41,1-.8,1.46-1.17,1.75-1.57,3.63-3.47,5.34-5.38.03-.03.06-.05.07-.08,3.03-3.37,5.54-6.8,5.95-8.62.02-.1.04-.18.05-.26,0-.04.01-.08.01-.12v-.02h0ZM445.08,85.82c.17-2.11-1.13-2.92-2.92-2.92-3.25,0-9.31,4.71-15.27,10.56-.2.19-.39.37-.58.56-.19.18-.37.36-.55.55-.23.22-.45.45-.67.67-.65.66-1.25,1.29-1.79,1.9-.15.16-.3.32-.43.48-.56.63-1.07,1.24-1.52,1.81-.09.12-.18.23-.26.34-.09.11-.17.22-.24.32-.2.26-.38.5-.54.74-.11.16-.22.33-.34.48,0,.03-.03.05-.05.08-.17.27-.33.52-.48.77t-.01,0c-.05.1-.11.19-.16.28-.05.1-.11.19-.15.28-.2.36-.36.7-.5,1.02-.01.01-.01.03-.02.04-.19.47-.33.89-.4,1.28-.2,1.02,0,1.75.52,2.18.19.16.42.28.7.36.83.24,2.02.13,3.46-.35.48-.14.98-.34,1.5-.57.36-.16.73-.33,1.1-.53.18-.09.37-.18.56-.29.29-.15.58-.32.87-.49.65-.38,1.32-.81,2.01-1.29.26-.17.52-.36.78-.55.31-.23.63-.46.95-.72.05-.04.11-.08.16-.13.28-.2.55-.42.84-.66.26-.21.52-.43.78-.66.41-.35.82-.71,1.23-1.09.15-.14.31-.28.46-.42.49-.45.98-.92,1.48-1.4,1.64-1.6,3.3-3.38,4.76-5.11.3-.35.58-.69.85-1.03.52-.64,1.01-1.27,1.44-1.87.1-.14.2-.27.3-.41.71-1.01,1.28-1.93,1.65-2.71.06-.12.11-.23.15-.33.12-.28.21-.53.26-.76.02-.07.03-.14.04-.2.02-.08.03-.15.03-.22ZM806.52,44.21c.48-6.99-7.15-13-19.34-13-34.31-1.36-55.78,41.47-75.39,66.03l.27.16c8.7-7.17,16.86-15.85,30-16.35h-.01c14.46,1.34,5.23,15.76-2.93,21.84-17.58,14.12-45.24,5.33-19.38-2.11,8.92-2.07,15.06-3.07,17.92-11.86.65-1.79,1.24-4.88-1.52-4.88-10.44,1.69-23.85,15.24-32.28,23.72-1.42,2.25-14,3.93-11.09-.32,3-5.41,7.68-12.13,12.03-17.66l-.16-.11c-9.12,7.44-19.71,20.82-31.74,21.22-6.85.32-7.99-5.58-4.71-9.69l-.16-.16c-4.22,3.74-12.02,9.75-19.82,9.86-10.85.52-10.81-8.91-3.74-15.71l-.16-.16c-2.91,2.64-6.16,5.64-10.3,8.83-10.9,11.06-35.45,8.35-15.81-9.26,10.97-10.08,17.08-10.6.32-10.89-8.66,8.58-19.41,21.62-33.08,22.53-2.28,2.66-4.77,3.68-10.45,4.28-6.63.72-3.57-2.38-2.49-4.72-6.49-.69-15.89-4-21.23-8.18-5.96,4.39-19.67,13.38-34.94,14.52-12.68.97-23.89-2.93-23.89-11.92-.88-10.73,15.32-15.08,15.98-5.04.22,4-6.56,5.48-6.66,9.48,5.71,14.23,39.69-1.33,47.89-8.35-28.31-22.5,10.61-55.65,28.38-24.26,15.76-14.93,31.65-31.24,52.92-32.22,5.96.25,9.53,1.15,9.21,4.23-9.83-7.34-17.39,7.49-23.72,14.95-10.08,13.98-20.91,30.5-30.17,45.61,12.11-1.13,22.7-13.53,30.97-21.56-5.24-5.3,7.87-11.66,11.48-6.89-13.49,10.86,7.52,3.48,7.64,9.64,1.83,2.05-21.56,23.85-8.61,19.88,11.06-5.96,18.19-16.27,30.22-20.86,5.24-2.51,21.85-8.13,21.17,1.73,4.11-4.27,5.25-4.98,10.34-4.98,4.6-.05,5.25.65,3.63,2.6-1.62,2.54-24.04,26.01-10.57,21.45,15.04-9.49,26.65-21.69,37.97-35.74,15.86-16.93,39.91-41.64,68.13-43.55,28.12.64,16.03,30.53,17.88,17.87ZM552.82,93.84c1.76-1.34,3.68-2.88,5.68-4.54.75-.63,1.51-1.26,2.28-1.91.76-.65,1.54-1.31,2.31-1.98.44-.38.87-.76,1.31-1.14.88-.76,1.75-1.52,2.62-2.3,2.18-1.92,4.32-3.84,6.33-5.67.53-.49,1.06-.97,1.58-1.44.51-.47,1.02-.94,1.51-1.39-1.86-3.94-4.65-6.74-7.76-8.43-.01,0-.02,0-.03-.02-.01-.01-.02-.01-.03-.02s-.02-.01-.03-.02c-4.15-2.24-8.85-2.5-12.74-.79h0c-4.15,1.82-7.34,5.89-7.87,12.19,0,.02,0,.05,0,.07-.04.46-.06.93-.07,1.41-.26,5.63,1.34,10.55,3.49,13.98.09.16.19.31.3.45.02.03.04.06.06.09.01.01.02.03.03.04.02.03.03.05.05.08.11.17.22.33.35.49.2.3.43.58.65.85ZM578.96,89.73c.19-2.83.13-5.93-.21-8.69-.03-.22-.06-.43-.09-.64-.3-2.12-.77-4-1.42-5.37-7.28,6.65-16.13,14.71-23.18,20.26,4.22,4.48,12.4,7.94,19.23,8.89,1.3-2.28,3.47-5.69,4.12-6.83h0c.13-.26.25-.56.36-.88.58-1.58.97-3.8,1.16-6.25.02-.16.03-.32.04-.49ZM585.66,84.92c1.05-1.54,2.14-3.12,3.26-4.72.95-1.35,1.92-2.71,2.92-4.07s2.02-2.72,3.06-4.08c1.04-1.36,2.1-2.7,3.18-4.04,1.08-1.33,2.17-2.65,3.28-3.94.59-.69,1.18-1.37,1.78-2.04.59-.67,1.19-1.34,1.8-1.99.42-.45.83-.9,1.25-1.34.36-.39.73-.77,1.1-1.15.05-.05.1-.1.16-.16.42-.42.84-.85,1.26-1.27.42-.42.85-.84,1.27-1.24.43-.41.85-.81,1.28-1.21.4-.38.81-.75,1.22-1.11.22-.21.45-.41.68-.6.22-.2.44-.39.67-.59.43-.36.86-.73,1.29-1.08.3-.25.6-.5.91-.74.3-.24.61-.48.91-.72.02,0,.04-.02.06-.04.41-.3.81-.61,1.22-.91.05-.04.11-.08.16-.12.02-.01.04-.03.06-.04.04-.03.07-.05.11-.08.45-.33.9-.64,1.35-.94.29-.2.58-.39.87-.57.66-.43,1.32-.84,1.98-1.22.28-.16.56-.32.84-.47.31-.17.62-.34.94-.5.31-.16.62-.32.94-.46.28-.14.57-.27.86-.4.17-.08.35-.15.52-.23.24-.1.47-.19.7-.28.29-.12.58-.23.88-.33.05-.02.09-.03.14-.05.24-.09.48-.17.73-.24.58-.19,1.15-.35,1.73-.49v-.16c-21.14.87-38.04,18.81-52.21,32.34,2.33,5.71,2.53,14.32,1.19,19.98,1.62-2.59,3.42-5.37,5.35-8.25.1-.15.2-.3.3-.45ZM677.65,85.75c-.19-1.03-.59-1.76-1.14-2.22h-.01c-.37-.3-.79-.47-1.28-.52h0s-.03-.01-.05-.01c-1.01-.12-2.25.21-3.66.85-.04.02-.08.04-.12.06h-.01c-4.43,2.14-10.3,7.48-14.71,12.46-.14.17-.29.34-.45.51-2.96,3.42-5.18,6.61-5.69,8.39,0,.03-.01.06-.02.09-.01.03-.02.07-.02.09-.02.08-.03.16-.04.23-.01.05-.02.1-.01.14-.02.19-.01.35.04.48.31.57.71.97,1.17,1.23.11.06.23.12.36.17.09.03.18.07.28.09.09.03.19.05.29.06.1.02.21.03.31.04.6.05,1.27-.05,1.98-.25.1-.03.2-.05.3-.09.1-.03.2-.06.3-.1.26-.09.53-.2.81-.32h.01c.19-.09.38-.18.58-.28.04-.01.08-.03.12-.05.09-.05.18-.1.28-.15.18-.09.37-.19.56-.3.34-.18.68-.38,1.03-.6.29-.18.58-.36.87-.55.44-.29.88-.59,1.32-.9.14-.1.29-.21.43-.31.29-.22.58-.43.86-.63.14-.11.28-.22.42-.32.42-.32.84-.65,1.24-.96.26-.21.53-.42.78-.63.51-.41,1-.8,1.46-1.17,1.75-1.57,3.63-3.47,5.34-5.38.03-.03.05-.05.07-.08,3.03-3.37,5.54-6.8,5.95-8.62.02-.1.04-.18.05-.26,0-.04.01-.08.01-.12v-.07ZM731.29,98.81c-.35.2-.79.39-1.32.58-.11.04-.23.08-.35.12-.16.06-.33.11-.5.17-.12.04-.25.08-.38.12-.18.06-.37.11-.56.17-.14.05-.28.09-.43.13-.19.05-.39.1-.59.16-.09.02-.18.05-.27.08-.75.2-1.54.41-2.36.62-.23.06-.47.12-.7.19-.06.01-.13.03-.19.05-.23.06-.46.12-.69.18-.8.21-1.6.43-2.39.66-.26.07-.52.15-.78.23-.39.12-.77.24-1.14.36-.25.08-.49.17-.73.25-.21.07-.41.14-.61.22-.72.27-1.4.55-1.99.85-.19.1-.38.19-.55.29-.26.15-.5.3-.72.46-.22.15-.42.31-.59.48-.06.06-.12.12-.18.19-.06.06-.11.12-.16.19-.05.06-.1.12-.14.19-.06.1-.12.19-.16.29-.03.06-.05.12-.07.18-.03.06-.04.12-.06.18-.03.18-.05.36-.03.54.66,1.36,2.05,1.71,3.66,1.55,2.58-.26,5.7-1.85,7.23-2.7.04-.02.08-.04.11-.06.06-.04.12-.07.17-.1,2.16-1.4,4.12-3,5.96-5.04.1-.1.2-.2.29-.31.13-.14.26-.29.39-.44.27-.33.55-.68.83-1.03ZM783.42,63.38c-1.02,2.33-.77,5.53.16,6.83,2.7,1.05,17.05-9.28,7.75-10.67-3.74,0-6.5.65-7.91,3.84ZM948.1,93.17c-5.18,11.51-46.82,28.61-49.54,8.51-4.41,4.83-25.02,15.65-25.19,2.98-1.84-3.9,23.47-25.68,7.64-18.91-10.15,5.33-21.28,15-30.54,22.32-1.04,1.61-13.66,3.93-10.77-.7,2.68-5.49,10.31-14.4,14.19-19.66.82-1.14,1.14-1.95.6-2.44-8.02,1.34-17.49,13.84-24.76,18.63-7.06,7.69-27.93,11.3-20.2-2.76l-.16-.16c-4.22,3.74-12.02,9.75-19.82,9.86-10.85.52-10.81-8.91-3.74-15.71l-.16-.16c-23.27,25.24-49.85,19.26-17.01-10.07-4.92,1.03-13.38,10.7-18.09,12.46,2.92-5.56,17.45-16.34,26.1-15.81,5.47,0,6.23.6,4.39,2.6-4.73,6.17-15.75,15.44-15.17,22.26,8.47-.13,16.13-11.85,23.24-15.98,5.55-3.92,30.76-17.2,31.35-3.9,4.11-4.27,5.25-4.98,10.34-4.98,4.6-.05,5.25.65,3.63,2.6-4.13,4.94-11.13,13.12-14.36,18.68-2.84,7.69,7.69.92,10.78-1.94,9.86-7.21,17.4-18.71,29.74-19.87,14.24,1.54-2.26,15.72-5.36,20.81l.27.27c8.2-6.37,22.98-20.57,35.69-21.07,15.48,1.16-1.98,16.28-4.77,21.56-4.34,9.3,10.06-.73,12.41-3.13.91-6.54,11.75-9.65,12.41-3.04.05,3.4-6.02,4.89-5.8,8.83,2.41,7.77,10.92,2.76,14.95-4.49,3.36-5.36,5.85-14.78,7.64-17.22l-.11-.16c-3.98,3.15-11.88,10.6-16.47,11.21,3.87-4.63,13.47-9.56,17.88-14.3.8-2.17,4.77-6,7.53-5.52,7.15.21-1.72,5.46-3.96,6.83-2.88,6.13,7.55,13.7-4.33,24.26,5.25-1.61,14.5-8.87,17.44-11.81.8-.64,1.6-1.34,2.09-.88ZM818.99,85.75c-.19-1.03-.59-1.76-1.14-2.22h0c-.37-.3-.79-.47-1.28-.52h-.01s-.03-.01-.05-.01c-1.01-.12-2.25.21-3.66.85-.04.02-.08.04-.12.06h0c-4.43,2.14-10.3,7.48-14.71,12.46-.14.17-.29.34-.45.51-2.96,3.42-5.18,6.61-5.69,8.39,0,.03-.01.06-.02.09-.01.03-.02.07-.02.09-.02.08-.03.16-.04.23-.01.05-.02.1-.01.14-.02.19-.01.35.04.48.31.57.71.97,1.17,1.23.11.06.23.12.36.17.09.03.18.07.28.09.09.03.19.05.29.06.1.02.21.03.31.04.6.05,1.27-.05,1.98-.25.1-.03.2-.05.3-.09.1-.03.2-.06.3-.1.26-.09.53-.2.81-.32h.01c.19-.09.38-.18.58-.28.04-.01.08-.03.12-.05.09-.05.18-.1.28-.15.18-.09.37-.19.56-.3.34-.18.68-.38,1.03-.6.29-.18.58-.36.87-.55.44-.29.88-.59,1.32-.9.14-.1.29-.21.43-.31.29-.22.58-.43.86-.63.14-.11.28-.22.42-.32.42-.32.84-.65,1.24-.96.26-.21.53-.42.78-.63.51-.41,1-.8,1.46-1.17,1.75-1.57,3.63-3.47,5.34-5.38.03-.03.05-.05.07-.08,3.03-3.37,5.54-6.8,5.95-8.62.02-.1.04-.18.05-.26,0-.04.01-.08.01-.12v-.07ZM948.12,93.13v.05s-.01-.01-.02-.01c.01,0,.01-.03.02-.04Z"/>
        </g>
        <g class="cls-1">
          <path class="cls-5" d="M551.38,91.84c-3.32-5.08-4.2-10.56-3.42-15.39-.04.46-.06.93-.07,1.41-.26,5.63,1.34,10.55,3.49,13.98ZM555.85,64.19c3.89-1.71,8.59-1.45,12.74.79-4.57-2.97-9.08-2.86-12.74-.79ZM579.08,84.35c-.07-1.14-.18-2.25-.33-3.31.34,2.76.4,5.86.21,8.69.15-1.8.2-3.67.12-5.38ZM107.19,59.76c.62-1.9,1.34-3.79,2.14-5.47,1.08-2.26,2.25-3.8,3.36-4.74-2.83,2.11-4.35,6.25-5.5,10.21ZM117.19,49.63c.71,1.56.25,4.48-2.35,8.06,1.19-1.45,2.13-2.95,2.56-4.43.43-1.52.32-2.78-.21-3.63ZM418.2,105.07c-.21,1.02-.01,1.76.52,2.18-.52-.43-.72-1.16-.52-2.18ZM418.2,105.07c.07-.39.21-.81.4-1.28-.2.47-.33.89-.4,1.28ZM419.12,102.73c-.2.36-.37.7-.5,1.02.14-.32.3-.66.5-1.02ZM189.55,105.27c.51-1.78,2.73-4.97,5.69-8.39-2.98,3.32-5.24,6.45-5.69,8.39ZM191.03,107.7c.81.31,1.79.25,2.86-.06-1.08.31-2.06.36-2.86.06ZM214.19,83c-.14-.04-.28-.07-.43-.1-.76-.14-1.93.24-3.35,1.01,1.46-.68,2.74-1.03,3.78-.91ZM216.62,86.2c-.41,1.82-2.92,5.25-5.95,8.62,2.86-3.02,5.52-6.25,5.95-8.62ZM215.54,83.53c.55.46.95,1.19,1.14,2.26.07-.94-.26-1.72-1.14-2.26ZM650.52,105.27c.51-1.78,2.73-4.97,5.69-8.39-2.98,3.32-5.24,6.45-5.69,8.39ZM654.86,107.64c-.71.2-1.38.3-1.98.25.61.05,1.27-.04,1.98-.25ZM675.16,83c-.14-.04-.28-.07-.43-.1-.74-.14-1.86.22-3.23.95,1.41-.64,2.65-.97,3.66-.85ZM677.59,86.2c-.41,1.82-2.92,5.25-5.95,8.62,2.86-3.02,5.52-6.25,5.95-8.62ZM676.51,83.53c.55.46.95,1.19,1.14,2.22.06-.92-.27-1.68-1.14-2.22ZM791.86,105.27c.51-1.78,2.73-4.97,5.69-8.39-2.98,3.32-5.24,6.45-5.69,8.39ZM796.2,107.64c-.71.2-1.38.3-1.98.25.61.05,1.27-.04,1.98-.25ZM816.5,83c-.14-.04-.28-.07-.43-.1-.74-.14-1.86.22-3.23.95,1.41-.64,2.65-.97,3.66-.85ZM818.93,86.2c-.41,1.82-2.92,5.25-5.95,8.62,2.86-3.02,5.52-6.25,5.95-8.62ZM817.85,83.53c.55.46.95,1.19,1.14,2.22.06-.92-.27-1.68-1.14-2.22ZM723.54,105.79c-1.53.85-4.65,2.44-7.23,2.7,2.22,0,4.8-1.13,7.23-2.7ZM730.46,99.84c.31-.36.59-.71.83-1.03-.28.35-.56.7-.83,1.03ZM152.07,46.33c-.75,6.66-9.09,16.03-27.13,30.82-12.84,10.56-26.38,21.34-35.1,29.9-1.51,1.51-4.55,4.49-8.12,4.49-3.79,0-2.71-2.98-1.84-4.28,5.29-8.3,8.63-22.99,12.03-32.33-.97.43-64.49,51.94-55.9,33.26,8.61-9.42,55.67-62.05,25.19-65.76-15.74-.06-35.34,15.06-37.32,30.23-.65,5.52,1.25,10.23,6.99,10.56,10.66.17,28.01-17.42,23.39-28.27,1.99.22,2.79,3.06,2.98,6.44-.72,12.22-13.22,23.23-26.7,23.13-18.31-2.69-10.96-23.99,2.39-33.21,12.99-10.83,47.52-18.27,50.04,3.96-.77,15.79-18.82,34.2-28.71,45.17l.11.16c9.62-7.03,28.25-20.49,38.35-28.33,9.67-36.42,47.4-29.74,12.07-3.24-2.44,10.08-5.74,24.59-10.94,31.58l.11.16c11.79-12.09,57.52-44.62,49.45-61.75-7.48-2.88,10.32-3.12,8.66,7.31ZM105.27,66.31c4.59-3.03,7.64-5.98,9.55-8.59.01-.01.01-.02.02-.03,2.6-3.58,3.06-6.5,2.35-8.06-.69-1.54-2.5-1.78-4.5-.08-1.11.94-2.28,2.48-3.36,4.74-.8,1.68-1.52,3.57-2.14,5.47-.76,2.29-1.39,4.59-1.92,6.55ZM149.91,63.38c-1.02,2.33-.77,5.53.16,6.83,2.7,1.05,17.05-9.28,7.75-10.67-3.74,0-6.5.65-7.91,3.84ZM547.11,43.88c-.16,2.12-1.13,3.9-1.62,3.74-.32-.16.33-1.3.49-3.41.49-6.98-7.26-13.32-20.74-13.32-15.01,0-22.16,4.39-30.77,12.19-6.82,6.33-21.39,24.36-34.39,40.78-5.25,6.61-12.67,16.74-13.92,19.01-.81,1.41-.81,2.71-.16,3.2.81.65,2.54.22,3.95-.43,1.63-.7,4.39-2.6,6.99-4.71,3.42-2.76,6.02-5.04,7.91-6.77l-.07-.04c.65-.6,1.68-1.52,2.17-1.03.49.48-.43,1.41-1.46,2.38-2.01,1.95-6.66,6.01-9.75,8.45-5.74,4.44-10.23,6.93-15.49,6.93-6.36.58-8.11-5.51-4.71-9.69l-.16-.16c-4.33,3.96-12.24,9.75-19.93,9.86-9.31.78-10.63-7.87-5.82-13.85-4.08,3.45-10.37,9.45-16.06,6.49-4.22,3.25-13.7,7.31-20.25,7.31-13.44.22-14.23-9.77-7.2-17.12l-.16-.16c-5.14,3.94-12.45,13.4-20,9.97-4.22,3.25-13.7,7.31-20.25,7.31-13.44.22-14.23-9.77-7.2-17.12l-.16-.16c-4.57,4.3-14.97,13.05-20.05,5.57-12.01,12.89-48.23,19.31-25.13-6.24l-.27-.27c-9.11,7.01-17.07,16.39-30.11,17.98-16.97-1.74,5.14-22.46,9.75-26.27-13.52,5.46-25.45,25.95-40.69,26.54-6.37.59-8.1-5.52-4.71-9.69l-.16-.16c-4.22,3.74-12.02,9.75-19.82,9.86-11.06.63-10.47-9.23-3.74-15.71l-.16-.16c-7.19,6.32-16.19,15.5-27.19,15.87-13.91-1.22-2.97-14.71,2.55-21.55l-.16-.16c-5.44,4.79-10.34,9.88-16.41,14.67-4.59,4.45-20.86,12.14-22.58,2.44.78-7.51,12.11-18.39,15.6-21.34-4.92,1.03-13.38,10.7-18.09,12.46,2.93-5.57,17.44-16.33,26.1-15.81,5.47,0,6.23.6,4.39,2.6-2.65,2.8-24.02,26.28-11.59,21.66,10.16-5.94,15.74-13.07,25.94-21.23,6.6-6.62,40.63-56.44,51.67-45.23-3.73,2.62-66.58,71.53-47.23,66.46,10.87-5.33,18.46-16.47,30.65-21.01,4.87-2.41,22.43-8.26,21.01,1.95l.16.11c5.98-6.93,41.72-58.77,52.48-47.72-1.98.95-81.65,89.8-42.08,61.76,11.12-8.18,16.99-18.67,31.81-19.55,5.14,0,5.41.81,3.84,2.6-1.72,2.38-24.44,26.45-11.75,21.77,9.53-4.79,19.67-14.34,27.52-21.29,1.47-1.24,2.93-1.95,8.45-1.95,4.01,0,4.5.65,3.41,2.06-3.45,5.34-15.77,16.69-13.32,22.49,6.06,1.28,15.09-5.91,19.11-10.13,2.8-24.01,28.73-17.4,2.17,1.29,5.57,6.94,14.65-3.91,19.68-7.2,6.89-4.44,20.17-12.68,28.6-8.99-20.13,7.76-37.65,45.24-5.2,16.95-.79-3.45,4.61-10.84,7.91-12.24.59-1.53-.87-4.27-.43-5.03,11.27,1.92,5.54,14.41-2.76,20.69,7.8,1.69,13.61-7.94,19.5-11.37,6.89-4.44,20.17-12.68,28.6-8.99-20.13,7.76-37.65,45.24-5.2,16.95-.79-3.45,4.61-10.84,7.91-12.24.59-1.53-.87-4.27-.43-5.03,11.27,1.92,5.54,14.41-2.76,20.69,5.39,1.94,12.06-5.47,15.43-8.18.98-.9,1.78-1.53,2.23-.8,1.12-1.1,2.35-2.16,3.63-3.16,5.26-4.23,15.39-9.54,24.86-9.21,4.66.22,5.85,3.09,5.09,5.74l.16.11c3.63-5.04,9.15-12.13,13.43-17.01,6.5-7.54,15.49-16.36,26.86-25.3,9.43-7.15,26.76-18.57,41.92-18.57,13.48,0,19.33,8.93,18.36,17.87ZM216.68,85.79c-.19-1.07-.59-1.8-1.14-2.26h0c-.37-.3-.8-.47-1.29-.52-.02-.01-.03-.01-.05-.01-1.04-.12-2.32.23-3.78.91h0c-4.43,2.14-10.3,7.48-14.71,12.46-.14.17-.29.34-.45.51-2.96,3.42-5.18,6.61-5.69,8.39-.01.03-.01.06-.02.09-.01.03-.01.07-.02.09-.02.08-.03.16-.04.23-.04.25-.03.46.03.62.08.14.16.27.25.4.09.12.18.23.28.33.19.2.41.37.64.5.11.06.23.12.36.17.8.3,1.78.25,2.86-.06.2-.05.4-.12.6-.19.26-.09.53-.2.81-.32h.01c.19-.09.38-.18.58-.28.04-.01.08-.03.12-.05.09-.05.18-.1.28-.15.18-.09.37-.19.56-.3.34-.18.68-.38,1.03-.6.29-.18.58-.36.87-.55.44-.29.88-.59,1.32-.9.14-.1.29-.21.43-.31.29-.22.58-.43.86-.63.14-.12.28-.22.42-.32.42-.32.84-.65,1.24-.96.26-.21.53-.42.78-.63.51-.41,1-.8,1.46-1.17,1.75-1.57,3.63-3.47,5.34-5.38.03-.03.06-.05.07-.08,3.03-3.37,5.54-6.8,5.95-8.62.02-.1.04-.18.05-.26,0-.04.01-.08.01-.12v-.02h0ZM445.08,85.82c.17-2.11-1.13-2.92-2.92-2.92-3.25,0-9.31,4.71-15.27,10.56-.2.19-.39.37-.58.56-.19.18-.37.36-.55.55-.23.22-.45.45-.67.67-.65.66-1.25,1.29-1.79,1.9-.15.16-.3.32-.43.48-.56.63-1.07,1.24-1.52,1.81-.09.12-.18.23-.26.34-.09.11-.17.22-.24.32-.2.26-.38.5-.54.74-.11.16-.22.33-.34.48,0,.03-.03.05-.05.08-.17.27-.33.52-.48.77t-.01,0c-.05.1-.11.19-.16.28-.05.1-.11.19-.15.28-.2.36-.36.7-.5,1.02-.01.01-.01.03-.02.04-.19.47-.33.89-.4,1.28-.2,1.02,0,1.75.52,2.18.19.16.42.28.7.36.83.24,2.02.13,3.46-.35.48-.14.98-.34,1.5-.57.36-.16.73-.33,1.1-.53.18-.09.37-.18.56-.29.29-.15.58-.32.87-.49.65-.38,1.32-.81,2.01-1.29.26-.17.52-.36.78-.55.31-.23.63-.46.95-.72.05-.04.11-.08.16-.13.28-.2.55-.42.84-.66.26-.21.52-.43.78-.66.41-.35.82-.71,1.23-1.09.15-.14.31-.28.46-.42.49-.45.98-.92,1.48-1.4,1.64-1.6,3.3-3.38,4.76-5.11.3-.35.58-.69.85-1.03.52-.64,1.01-1.27,1.44-1.87.1-.14.2-.27.3-.41.71-1.01,1.28-1.93,1.65-2.71.06-.12.11-.23.15-.33.12-.28.21-.53.26-.76.02-.07.03-.14.04-.2.02-.08.03-.15.03-.22ZM806.52,44.21c.48-6.99-7.15-13-19.34-13-34.31-1.36-55.78,41.47-75.39,66.03l.27.16c8.7-7.17,16.86-15.85,30-16.35h-.01c14.46,1.34,5.23,15.76-2.93,21.84-17.58,14.12-45.24,5.33-19.38-2.11,8.92-2.07,15.06-3.07,17.92-11.86.65-1.79,1.24-4.88-1.52-4.88-10.44,1.69-23.85,15.24-32.28,23.72-1.42,2.25-14,3.93-11.09-.32,3-5.41,7.68-12.13,12.03-17.66l-.16-.11c-9.12,7.44-19.71,20.82-31.74,21.22-6.85.32-7.99-5.58-4.71-9.69l-.16-.16c-4.22,3.74-12.02,9.75-19.82,9.86-10.85.52-10.81-8.91-3.74-15.71l-.16-.16c-2.91,2.64-6.16,5.64-10.3,8.83-10.9,11.06-35.45,8.35-15.81-9.26,10.97-10.08,17.08-10.6.32-10.89-8.66,8.58-19.41,21.62-33.08,22.53-2.28,2.66-4.77,3.68-10.45,4.28-6.63.72-3.57-2.38-2.49-4.72-6.49-.69-15.89-4-21.23-8.18-5.96,4.39-19.67,13.38-34.94,14.52-12.68.97-23.89-2.93-23.89-11.92-.88-10.73,15.32-15.08,15.98-5.04.22,4-6.56,5.48-6.66,9.48,5.71,14.23,39.69-1.33,47.89-8.35-28.31-22.5,10.61-55.65,28.38-24.26,15.76-14.93,31.65-31.24,52.92-32.22,5.96.25,9.53,1.15,9.21,4.23-9.83-7.34-17.39,7.49-23.72,14.95-10.08,13.98-20.91,30.5-30.17,45.61,12.11-1.13,22.7-13.53,30.97-21.56-5.24-5.3,7.87-11.66,11.48-6.89-13.49,10.86,7.52,3.48,7.64,9.64,1.83,2.05-21.56,23.85-8.61,19.88,11.06-5.96,18.19-16.27,30.22-20.86,5.24-2.51,21.85-8.13,21.17,1.73,4.11-4.27,5.25-4.98,10.34-4.98,4.6-.05,5.25.65,3.63,2.6-1.62,2.54-24.04,26.01-10.57,21.45,15.04-9.49,26.65-21.69,37.97-35.74,15.86-16.93,39.91-41.64,68.13-43.55,28.12.64,16.03,30.53,17.88,17.87ZM552.82,93.84c1.76-1.34,3.68-2.88,5.68-4.54.75-.63,1.51-1.26,2.28-1.91.76-.65,1.54-1.31,2.31-1.98.44-.38.87-.76,1.31-1.14.88-.76,1.75-1.52,2.62-2.3,2.18-1.92,4.32-3.84,6.33-5.67.53-.49,1.06-.97,1.58-1.44.51-.47,1.02-.94,1.51-1.39-1.86-3.94-4.65-6.74-7.76-8.43-.01,0-.02,0-.03-.02-.01-.01-.02-.01-.03-.02s-.02-.01-.03-.02c-4.15-2.24-8.85-2.5-12.74-.79h0c-4.15,1.82-7.34,5.89-7.87,12.19,0,.02,0,.05,0,.07-.04.46-.06.93-.07,1.41-.26,5.63,1.34,10.55,3.49,13.98.09.16.19.31.3.45.02.03.04.06.06.09.01.01.02.03.03.04.02.03.03.05.05.08.11.17.22.33.35.49.2.3.43.58.65.85ZM578.96,89.73c.19-2.83.13-5.93-.21-8.69-.03-.22-.06-.43-.09-.64-.3-2.12-.77-4-1.42-5.37-7.28,6.65-16.13,14.71-23.18,20.26,4.22,4.48,12.4,7.94,19.23,8.89,1.3-2.28,3.47-5.69,4.12-6.83h0c.13-.26.25-.56.36-.88.58-1.58.97-3.8,1.16-6.25.02-.16.03-.32.04-.49ZM585.66,84.92c1.05-1.54,2.14-3.12,3.26-4.72.95-1.35,1.92-2.71,2.92-4.07s2.02-2.72,3.06-4.08c1.04-1.36,2.1-2.7,3.18-4.04,1.08-1.33,2.17-2.65,3.28-3.94.59-.69,1.18-1.37,1.78-2.04.59-.67,1.19-1.34,1.8-1.99.42-.45.83-.9,1.25-1.34.36-.39.73-.77,1.1-1.15.05-.05.1-.1.16-.16.42-.42.84-.85,1.26-1.27.42-.42.85-.84,1.27-1.24.43-.41.85-.81,1.28-1.21.4-.38.81-.75,1.22-1.11.22-.21.45-.41.68-.6.22-.2.44-.39.67-.59.43-.36.86-.73,1.29-1.08.3-.25.6-.5.91-.74.3-.24.61-.48.91-.72.02,0,.04-.02.06-.04.41-.3.81-.61,1.22-.91.05-.04.11-.08.16-.12.02-.01.04-.03.06-.04.04-.03.07-.05.11-.08.45-.33.9-.64,1.35-.94.29-.2.58-.39.87-.57.66-.43,1.32-.84,1.98-1.22.28-.16.56-.32.84-.47.31-.17.62-.34.94-.5.31-.16.62-.32.94-.46.28-.14.57-.27.86-.4.17-.08.35-.15.52-.23.24-.1.47-.19.7-.28.29-.12.58-.23.88-.33.05-.02.09-.03.14-.05.24-.09.48-.17.73-.24.58-.19,1.15-.35,1.73-.49v-.16c-21.14.87-38.04,18.81-52.21,32.34,2.33,5.71,2.53,14.32,1.19,19.98,1.62-2.59,3.42-5.37,5.35-8.25.1-.15.2-.3.3-.45ZM677.65,85.75c-.19-1.03-.59-1.76-1.14-2.22h-.01c-.37-.3-.79-.47-1.28-.52h0s-.03-.01-.05-.01c-1.01-.12-2.25.21-3.66.85-.04.02-.08.04-.12.06h-.01c-4.43,2.14-10.3,7.48-14.71,12.46-.14.17-.29.34-.45.51-2.96,3.42-5.18,6.61-5.69,8.39,0,.03-.01.06-.02.09-.01.03-.02.07-.02.09-.02.08-.03.16-.04.23-.01.05-.02.1-.01.14-.02.19-.01.35.04.48.31.57.71.97,1.17,1.23.11.06.23.12.36.17.09.03.18.07.28.09.09.03.19.05.29.06.1.02.21.03.31.04.6.05,1.27-.05,1.98-.25.1-.03.2-.05.3-.09.1-.03.2-.06.3-.1.26-.09.53-.2.81-.32h.01c.19-.09.38-.18.58-.28.04-.01.08-.03.12-.05.09-.05.18-.1.28-.15.18-.09.37-.19.56-.3.34-.18.68-.38,1.03-.6.29-.18.58-.36.87-.55.44-.29.88-.59,1.32-.9.14-.1.29-.21.43-.31.29-.22.58-.43.86-.63.14-.11.28-.22.42-.32.42-.32.84-.65,1.24-.96.26-.21.53-.42.78-.63.51-.41,1-.8,1.46-1.17,1.75-1.57,3.63-3.47,5.34-5.38.03-.03.05-.05.07-.08,3.03-3.37,5.54-6.8,5.95-8.62.02-.1.04-.18.05-.26,0-.04.01-.08.01-.12v-.07ZM731.29,98.81c-.35.2-.79.39-1.32.58-.11.04-.23.08-.35.12-.16.06-.33.11-.5.17-.12.04-.25.08-.38.12-.18.06-.37.11-.56.17-.14.05-.28.09-.43.13-.19.05-.39.1-.59.16-.09.02-.18.05-.27.08-.75.2-1.54.41-2.36.62-.23.06-.47.12-.7.19-.06.01-.13.03-.19.05-.23.06-.46.12-.69.18-.8.21-1.6.43-2.39.66-.26.07-.52.15-.78.23-.39.12-.77.24-1.14.36-.25.08-.49.17-.73.25-.21.07-.41.14-.61.22-.72.27-1.4.55-1.99.85-.19.1-.38.19-.55.29-.26.15-.5.3-.72.46-.22.15-.42.31-.59.48-.06.06-.12.12-.18.19-.06.06-.11.12-.16.19-.05.06-.1.12-.14.19-.06.1-.12.19-.16.29-.03.06-.05.12-.07.18-.03.06-.04.12-.06.18-.03.18-.05.36-.03.54.66,1.36,2.05,1.71,3.66,1.55,2.58-.26,5.7-1.85,7.23-2.7.04-.02.08-.04.11-.06.06-.04.12-.07.17-.1,2.16-1.4,4.12-3,5.96-5.04.1-.1.2-.2.29-.31.13-.14.26-.29.39-.44.27-.33.55-.68.83-1.03ZM783.42,63.38c-1.02,2.33-.77,5.53.16,6.83,2.7,1.05,17.05-9.28,7.75-10.67-3.74,0-6.5.65-7.91,3.84ZM948.1,93.17c-5.18,11.51-46.82,28.61-49.54,8.51-4.41,4.83-25.02,15.65-25.19,2.98-1.84-3.9,23.47-25.68,7.64-18.91-10.15,5.33-21.28,15-30.54,22.32-1.04,1.61-13.66,3.93-10.77-.7,2.68-5.49,10.31-14.4,14.19-19.66.82-1.14,1.14-1.95.6-2.44-8.02,1.34-17.49,13.84-24.76,18.63-7.06,7.69-27.93,11.3-20.2-2.76l-.16-.16c-4.22,3.74-12.02,9.75-19.82,9.86-10.85.52-10.81-8.91-3.74-15.71l-.16-.16c-23.27,25.24-49.85,19.26-17.01-10.07-4.92,1.03-13.38,10.7-18.09,12.46,2.92-5.56,17.45-16.34,26.1-15.81,5.47,0,6.23.6,4.39,2.6-4.73,6.17-15.75,15.44-15.17,22.26,8.47-.13,16.13-11.85,23.24-15.98,5.55-3.92,30.76-17.2,31.35-3.9,4.11-4.27,5.25-4.98,10.34-4.98,4.6-.05,5.25.65,3.63,2.6-4.13,4.94-11.13,13.12-14.36,18.68-2.84,7.69,7.69.92,10.78-1.94,9.86-7.21,17.4-18.71,29.74-19.87,14.24,1.54-2.26,15.72-5.36,20.81l.27.27c8.2-6.37,22.98-20.57,35.69-21.07,15.48,1.16-1.98,16.28-4.77,21.56-4.34,9.3,10.06-.73,12.41-3.13.91-6.54,11.75-9.65,12.41-3.04.05,3.4-6.02,4.89-5.8,8.83,2.41,7.77,10.92,2.76,14.95-4.49,3.36-5.36,5.85-14.78,7.64-17.22l-.11-.16c-3.98,3.15-11.88,10.6-16.47,11.21,3.87-4.63,13.47-9.56,17.88-14.3.8-2.17,4.77-6,7.53-5.52,7.15.21-1.72,5.46-3.96,6.83-2.88,6.13,7.55,13.7-4.33,24.26,5.25-1.61,14.5-8.87,17.44-11.81.8-.64,1.6-1.34,2.09-.88ZM818.99,85.75c-.19-1.03-.59-1.76-1.14-2.22h0c-.37-.3-.79-.47-1.28-.52h-.01s-.03-.01-.05-.01c-1.01-.12-2.25.21-3.66.85-.04.02-.08.04-.12.06h0c-4.43,2.14-10.3,7.48-14.71,12.46-.14.17-.29.34-.45.51-2.96,3.42-5.18,6.61-5.69,8.39,0,.03-.01.06-.02.09-.01.03-.02.07-.02.09-.02.08-.03.16-.04.23-.01.05-.02.1-.01.14-.02.19-.01.35.04.48.31.57.71.97,1.17,1.23.11.06.23.12.36.17.09.03.18.07.28.09.09.03.19.05.29.06.1.02.21.03.31.04.6.05,1.27-.05,1.98-.25.1-.03.2-.05.3-.09.1-.03.2-.06.3-.1.26-.09.53-.2.81-.32h.01c.19-.09.38-.18.58-.28.04-.01.08-.03.12-.05.09-.05.18-.1.28-.15.18-.09.37-.19.56-.3.34-.18.68-.38,1.03-.6.29-.18.58-.36.87-.55.44-.29.88-.59,1.32-.9.14-.1.29-.21.43-.31.29-.22.58-.43.86-.63.14-.11.28-.22.42-.32.42-.32.84-.65,1.24-.96.26-.21.53-.42.78-.63.51-.41,1-.8,1.46-1.17,1.75-1.57,3.63-3.47,5.34-5.38.03-.03.05-.05.07-.08,3.03-3.37,5.54-6.8,5.95-8.62.02-.1.04-.18.05-.26,0-.04.01-.08.01-.12v-.07ZM948.12,93.13v.05s-.01-.01-.02-.01c.01,0,.01-.03.02-.04Z"/>
        </g>
        <g class="cls-2">
          <path class="cls-4" d="M528.75,27.01c5.98,0,10.78,1.83,13.89,5.29,1.73,1.93,2.86,4.28,3.33,6.88-.5-1.02-1.18-2-2.03-2.91-3.78-4.05-10.59-6.38-18.7-6.38-14.96,0-22.33,4.19-31.45,12.46-7.08,6.57-22.15,25.31-34.49,40.89-5.28,6.65-12.75,16.85-14,19.13-1.06,1.84-1.02,3.65.08,4.48.45.36,1.04.54,1.76.54,1.1,0,2.29-.43,3-.74-3.3,2.03-6.41,3.2-9.88,3.2h-.09c-.25.03-.5.04-.74.04-1.99,0-3.48-.81-4.17-2.28-.82-1.73-.4-4.01,1.07-5.82l.57-.7-.64-.64-.16-.16-.47-.47c.22-.21.45-.43.68-.65,1.68-1.64,3.35-3.43,4.82-5.17.31-.36.6-.71.87-1.05.58-.72,1.07-1.34,1.48-1.92l.14-.19.16-.22c.79-1.12,1.35-2.05,1.73-2.84.05-.11.1-.21.14-.3l.18.12.16.11.81.55.57-.79c3.28-4.55,8.86-11.79,13.38-16.94,5.07-5.89,13.83-15.03,26.71-25.16,21.08-15.98,34.93-18.37,41.32-18.37M788.66,27.34c8.14.19,13.61,2.88,16.25,7.97.51.99.88,2.01,1.14,3.01-.43-.71-.95-1.4-1.56-2.05-3.6-3.85-9.91-6.06-17.27-6.06,0,0,0,0,0,0-.54-.02-1.09-.03-1.63-.03-27.1,0-45.9,26.56-62.49,49.99-4.2,5.93-8.17,11.54-12.08,16.44l-.72.9.99.59.27.16.35.21c-3.12,2.92-6.04,5.86-8.58,8.41l-.17.17-.08.08-.06.09c-.44.69-3.98,1.84-7.19,1.84-1.82,0-2.43-.39-2.48-.48,0,0-.02-.17.26-.57l.03-.04.02-.04c2.76-4.98,7.22-11.53,11.94-17.53l.66-.84-.88-.6-.16-.11-.12-.09c6.15-6.09,11.46-12.36,16.18-18.21,13.52-14.43,38.64-41.23,67.4-43.21M144.23,38.43c1.76.29,4.14,1.16,5.61,2.87,1.13,1.32,1.54,2.96,1.23,4.92-.7,6.26-8.96,15.56-26.77,30.16-2.18,1.79-4.38,3.59-6.57,5.39-5.94,4.86-11.7,9.56-16.88,14,1.72-1.51,3.61-3.14,5.62-4.86,17.7-15.24,44.46-38.27,37.85-52.3l-.08-.17M266.83,38.61c.84,0,1.57.19,2.21.59-3.91,3.83-16.82,18.31-26.96,30.31-26.66,31.55-25.82,35.23-25.55,36.44.2.9.92,1.43,1.92,1.43.92,0,2.66-.39,7.19-3.33-4.41,3.25-8.98,5.6-13.83,5.79h-.03s-.03,0-.03,0c-.25.02-.51.04-.75.04-1.99,0-3.46-.81-4.16-2.27-.82-1.73-.41-4.02,1.06-5.83l.57-.7-.64-.64-.16-.16-.46-.46c1.36-1.29,2.77-2.75,4.09-4.22.04-.03.09-.09.14-.16,2.26-2.39,3.85-4.35,4.85-5.99l.77,4.35.45-6.09.71.49.59-.68c.99-1.14,2.68-3.37,5.03-6.46,9.66-12.7,32.29-42.46,42.97-42.46M209.52,38.73c.92,0,1.72.22,2.43.66-3.81,3.6-16.04,16.93-26.88,29.86-6.24,7.45-25.23,30.11-23.35,36.06.21.67.85,1.79,2.79,1.79.58,0,1.23-.1,1.99-.29-3.26,1.74-6.73,2.92-10.39,3.06-3.03-.28-4.89-1.17-5.52-2.66-1.76-4.14,5.09-12.63,8.77-17.18l.06-.07.56-.7-.64-.64-.16-.16-.19-.19c1.1-.94,2.25-1.9,3.47-2.87l.04-.04.04-.04c1.42-1.42,4.03-4.73,7.33-8.93,10.37-13.16,29.67-37.65,39.66-37.65M632.03,40.89c.75.04,1.53.11,2.3.2-.78.04-1.55.2-2.3.44v-.65M63.71,41.86c7.67.04,16.96,2.44,18.25,13.44-.74,14.08-15.81,30.59-25.78,41.53-.94,1.03-1.83,2.01-2.67,2.94l-.53.59.45.65.11.16.5.73c-9.15,6.23-14.97,9.37-17.39,9.37-.27,0-.39-.05-.41-.07,0,0-.27-.51.6-2.45,12.34-13.51,40.16-46.19,34.82-60.63-1.18-3.19-3.85-5.28-7.96-6.26M628.87,43.15c-3.56,2.45-6.7,6.68-9.59,10.56-1.26,1.7-2.45,3.3-3.6,4.65l-.03.03-.02.03c-9.55,13.24-20.28,29.46-30.21,45.67l-1.04,1.7h.13c-2.05,2.28-4.36,3.17-9.62,3.72-.61.07-1.15.1-1.61.1-1.01,0-1.35-.16-1.43-.22-.02-.35.54-1.33.85-1.87.25-.43.51-.88.71-1.32l.55-1.19.2-.35c.75-1.32,1.82-3.06,2.68-4.45.35-.57.68-1.1.95-1.54l-.15.62,3.22-5.15c1.65-2.64,3.45-5.41,5.33-8.23l.29-.44c1.09-1.6,2.19-3.19,3.25-4.71,1.1-1.56,2.03-2.85,2.91-4.05.99-1.35,2.02-2.72,3.05-4.06.94-1.23,1.98-2.55,3.16-4.02,1.25-1.54,2.29-2.79,3.26-3.92.59-.68,1.17-1.36,1.77-2.03.69-.79,1.26-1.41,1.78-1.97l.43-.46c.27-.29.54-.59.83-.89.35-.38.72-.76,1.07-1.12l.16-.16c.21-.21.42-.42.63-.64.21-.21.42-.42.63-.63.41-.41.84-.83,1.25-1.22.43-.41.84-.8,1.28-1.21.39-.37.79-.73,1.22-1.11.2-.19.41-.38.66-.58.19-.17.38-.34.58-.51l.06-.05.43-.37c.28-.24.56-.48.85-.71.29-.24.58-.48.89-.73l.45-.35.38-.3c.05-.03.1-.07.15-.11.19-.14.39-.29.58-.43.2-.15.4-.3.63-.47l.04-.03s.05-.04.07-.05c0,0,.01,0,.02-.01h.02s.07-.07.07-.07l.06-.05c.39-.29.82-.59,1.33-.92.28-.19.55-.37.85-.56.7-.45,1.33-.84,1.93-1.19.27-.16.54-.31.82-.46.3-.16.6-.33.92-.49.3-.16.59-.31.88-.43h.02s.02-.02.02-.02c.27-.13.54-.26.84-.39.07-.04.15-.07.23-.1.1-.04.2-.08.25-.11.23-.1.46-.18.7-.28.27-.11.54-.21.81-.31h.04s.03-.03.03-.03c.02,0,.04-.01.05-.02M46.1,45.2c-3.25,1.55-6.43,3.53-9.39,5.89-7.82,6.25-12.86,14.06-13.83,21.46-.44,3.76.24,6.85,1.99,8.93.04.05.09.1.13.15-2.16-1.32-3.56-3.22-4.12-5.65-1.68-7.18,3.98-17.88,12.62-23.84l.04-.03.03-.03c3.27-2.73,7.7-5.11,12.53-6.88M112.51,48.42c-.15.11-.29.22-.44.35-3.07,2.3-4.67,6.7-5.83,10.7-.75,2.25-1.36,4.49-1.93,6.58l-.69,2.55.67-.44s-.06.05-.1.07l-.29.22-.08.35-.4,1.64c-2.35,9.76-5.57,23.12-10.38,29.58l-.43.57.41.59.11.16.51.75c-1.61,1.46-3.12,2.89-4.52,4.26-1.26,1.26-4.2,4.2-7.41,4.2-.85,0-1.43-.18-1.6-.49-.25-.47.1-1.51.6-2.25,3.76-5.89,6.54-14.93,9.01-22.91,1.08-3.5,2.1-6.8,3.12-9.61l.8-2.21-.76.34c.15-.11.29-.23.44-.34l.27-.21.09-.33c3.91-14.71,12.56-22.37,18.82-24.11M118.08,49.17c.15.2.28.42.36.69.07.22.12.46.14.73-.09-.52-.26-1-.51-1.42M56.02,59.33c.1.61.18,1.3.22,2.06-.34,5.53-3.31,11.13-8.16,15.38-2.98,2.61-6.48,4.54-10.14,5.66,5.16-2.43,10.6-7.09,14.21-12.56,2.45-3.7,3.75-7.3,3.87-10.53M559.17,60.19c5.99,0,11.48,3.13,15.76,8.91-1.58-2.02-3.49-3.68-5.68-4.88l-.03-.03h-.02s-.01-.02-.01-.02l-.09-.05c-2.5-1.62-5.08-2.44-7.66-2.44-2.09,0-4.11.53-6,1.59h0c-4.84,2.12-7.92,6.84-8.46,12.94,0,.05-.01.09-.02.13-.87,5.47.4,11.15,3.56,16.01.11.19.23.38.34.51l.04.06.05.08h0s0,.01,0,.01h0c.1.16.22.35.38.55.21.31.45.61.68.89l.56.69-.02.02.75.8c2.87,3.04,7.7,5.8,12.92,7.55-5.09-1.42-10.69-3.81-14.37-6.69l-.6-.47-.61.45c-.18.13-.36.27-.55.4.06-.05.12-.1.18-.15l.92-.79-.95-.75c-8.25-6.56-11.41-14.83-8.67-22.69,2.56-7.33,9.94-12.65,17.57-12.65M791.25,60.54c1.49.23,2.22.68,2.17,1.34-.19,2.54-6.92,7.2-9.23,7.4-.51-1.15-.7-3.58.14-5.49,1.04-2.35,2.92-3.23,6.92-3.25M157.74,60.54c1.49.23,2.22.68,2.17,1.34-.19,2.54-6.92,7.2-9.23,7.4-.51-1.15-.7-3.58.14-5.49,1.04-2.35,2.92-3.23,6.92-3.25M576.43,71.32c.25.4.49.81.73,1.23l.48.84h0s.26.63.26.63c.05.12.09.23.14.35l-.47-.99-.04.04-.18-.38c-.28-.6-.59-1.17-.91-1.73M624.71,75.49c.76,0,1.73.12,2.5.63-3.26,2.74-4.37,4.4-3.92,5.79.13.39.36.7.67.95-1.44-.06-3.22-.11-5.42-.14h-.24s-.35-.35-.35-.35c-.91-.92-1.15-1.85-.73-2.85.88-2.1,4.45-4.02,7.49-4.02M936.37,75.73c.11,0,.22,0,.32.03h.07s.07.01.07.01c1.07.03,1.54.18,1.73.27-.19.47-1.22,1.69-5.94,4.56l-.24.15-.26.16-.13.27c-1.19,2.53-.45,5.14.33,7.9,1.35,4.75,2.74,9.67-4.42,16.04l-2.46,2.18c-4.74,1.64-9.61,2.67-13.91,2.67-.04,0-.07,0-.11,0,3.42-.84,7.34-4.24,9.82-8.7,1.91-3.05,3.49-7.23,4.88-10.92,1.02-2.7,1.98-5.24,2.7-6.22l.42-.57-.4-.59-.11-.16-.23-.34c.56-.5,1.08-1,1.55-1.51l.14-.15.07-.19c.66-1.8,3.93-4.91,6.1-4.91M813.82,81.75c.62,0,1.18.04,1.69.13-.83.05-1.86.41-3.12,1.08l-.11.06-.11.06c-4.85,2.37-10.87,8.07-14.93,12.66-.12.15-.26.3-.42.48h0c-2.37,2.64-5.32,6.31-5.91,8.81l-.03.11v.02s-.02.08-.03.13c-.02.08-.03.15-.04.24-.01.07-.03.18-.03.31-.02.32.01.59.11.84l.02.06.03.06c.39.71.91,1.26,1.57,1.63.17.09.33.17.52.24l.05.02c.09.03.18.06.28.09.13.04.26.07.41.08.11.02.23.03.35.04h.04s0,0,0,0h0s.03,0,.03,0h.01s0,0,0,0h.04s0,0,0,0h.02s.04,0,.05,0c.08,0,.16,0,.24,0s.16,0,.25,0c-1.85.6-3.62.92-5.3.94-.27.01-.54.02-.79.02-3.39,0-5.63-1.09-6.46-3.16-1.17-2.91.54-7.27,4.26-10.85l.73-.71-.72-.72-.16-.16-.34-.34c1.23-1.04,2.42-1.94,3.6-2.62l.04-.02.04-.03c3.96-2.79,16.52-9.5,24.13-9.5M211.73,81.95c.29,0,.56,0,.82.02-.74.16-1.61.51-2.62,1.06l-.04.03c-4.85,2.36-10.9,8.08-14.97,12.68-.12.15-.26.3-.42.48h0c-2.37,2.64-5.32,6.31-5.91,8.81,0,.03-.02.07-.02.1,0,.03-.01.05-.02.08h0c-.03.11-.04.22-.06.32-.07.42-.04.8.08,1.13l.03.08.04.07c.09.17.19.32.32.5.13.18.25.31.35.42.26.27.55.5.89.69.17.09.33.17.48.23,0,0,0,0,0,0h0s0,0,.01,0c.46.17.98.26,1.53.26.07,0,.14,0,.21,0-1.86.61-3.64.93-5.33.95-.32.02-.63.03-.93.03-3.27,0-5.43-1.07-6.25-3.08-1.18-2.93.54-7.43,4.18-10.94l.73-.71-.72-.72-.16-.16-.19-.19c4.08-3.33,8.4-6.45,13.48-8.34l.05-.02.05-.02c2.48-1.23,9.25-3.76,14.38-3.76M672.73,81.95c.27,0,.54,0,.79.02-.71.15-1.53.48-2.49,1l.47.88-.49-.87-.08.04-.1.06c-4.85,2.37-10.87,8.07-14.94,12.66-.12.15-.26.3-.42.48h0c-2.37,2.64-5.32,6.31-5.91,8.81l-.03.11v.02s-.02.09-.03.13c-.02.08-.03.15-.04.24-.01.07-.03.18-.03.31-.02.32.01.59.11.84l.02.06.03.06c.39.71.91,1.26,1.57,1.63.17.09.33.17.52.24l.05.02c.09.03.18.06.28.09.13.04.26.07.4.08.11.02.23.03.38.05h.03s0,0,0,0h.03s0,0,0,0h.01s0,0,0,0h.05s0,0,0,0h0s.03,0,.04,0c.08,0,.17,0,.25,0,.15,0,.31,0,.47-.02-1.93.65-3.78.99-5.52,1.02-.27.01-.54.02-.79.02-3.39,0-5.63-1.09-6.46-3.16-1.17-2.91.54-7.27,4.26-10.85l.73-.71-.72-.72-.16-.16-.2-.2c4.13-3.36,8.33-6.38,13.51-8.36h.04s.04-.03.04-.03c3.17-1.52,9.61-3.78,14.33-3.78M440.44,82.03c.2,0,.39,0,.58,0-4.13.9-10.24,6.2-14.85,10.73-.2.19-.38.36-.55.53-.2.19-.4.39-.55.55-.16.15-.32.31-.47.47l-.22.22c-.74.75-1.32,1.37-1.81,1.92-.17.18-.33.36-.45.5-.55.62-1.08,1.25-1.57,1.87l-.11.14c-.05.06-.1.13-.14.19-.1.12-.19.24-.24.32-.21.28-.41.54-.57.78l-.08.11c-.07.1-.14.21-.22.31l-.11.14-.02.06-.09.15s-.06.1-.09.14h-.06s-.28.55-.28.55c0,0,0,0,0,0l-.09.15h0s-.06.12-.06.12l-.04.08c-.04.07-.07.13-.1.19-.19.33-.34.64-.46.92l-.03.03-.06.17h0c-.22.54-.37,1.02-.46,1.48,0,0,0,0,0,0-.37,1.84.39,2.76.86,3.13,0,0,0,0,0,0h0c.3.25.66.43,1.06.55.37.11.79.16,1.24.16.41,0,.86-.04,1.33-.13-2.04.75-4.16,1.23-6.28,1.26h-.03s-.03,0-.03,0c-.36.03-.72.05-1.06.05-2.86,0-4.88-1.05-5.83-3.03-1.23-2.56-.45-6.27,1.93-9.24l-1.07-1.04c.71-.63,1.32-1.18,1.85-1.61l.03-.02.02-.02c.38-.35.67-.59.87-.73l.49.79.89-.88c1.04-1.02,2.24-2.06,3.56-3.09,5.57-4.48,14.97-9,23.39-9M860.58,82.03c2.57.29,4.1,1.02,4.56,2.16,1.13,2.85-3.85,8.68-7.14,12.54-1.56,1.82-2.9,3.4-3.62,4.59l-.41.67.56.56.27.27.29.29c-1.82,1.47-3.54,2.86-5.23,4.19l-.1.07-.09.14c-.5.53-4.09,1.6-7.08,1.6-1.66,0-2.23-.35-2.3-.48-.02-.03-.02-.25.27-.72l.03-.04.02-.05c1.88-3.85,6.45-9.67,10.11-14.34,1.48-1.89,2.88-3.67,3.99-5.17.5-.69,1.82-2.53.46-3.76l-.36-.33-.48.08c-1.05.18-2.11.52-3.18,1,2.88-1.72,5.96-2.91,9.44-3.26M891.17,82.03c2.9.23,4.63.96,5.15,2.17,1.21,2.83-3.67,8.78-6.9,12.72-1.71,2.08-3.18,3.88-3.91,5.25-.97,2.08-1.15,3.48-.57,4.39.26.42.8.91,1.87.91.34,0,.73-.06,1.15-.16-2.99,1.33-6.12,2.29-8.66,2.29-3.32,0-4.89-1.57-4.94-4.95v-.21s-.09-.2-.09-.2c-.35-1.23,4.23-6.73,6.68-9.68,4.94-5.94,6.88-8.53,6.12-10.15-.17-.36-.62-.96-1.78-.96-.38,0-.83.06-1.36.19,2.45-.93,4.88-1.52,7.23-1.62M741.95,82.06h0c3.72.34,5.9,1.59,6.5,3.69,1.23,4.35-4.25,12.11-9.96,16.36-5.68,4.56-13.4,7.29-20.66,7.29-.09,0-.18,0-.27,0,1.92-.28,4.09-1.2,6.48-2.74.06-.03.12-.06.16-.1l.05-.03.11-.07c2.36-1.53,4.37-3.23,6.14-5.19.11-.11.22-.22.32-.34.13-.14.26-.29.4-.45.31-.36.6-.73.87-1.08l2.63-3.5c1.62-1.59,2.93-3.71,3.88-6.64.46-1.26,1.07-3.59.04-5.06-.37-.53-1.1-1.16-2.5-1.16h-.16c-.4.08-.8.16-1.2.25,2.23-.69,4.61-1.13,7.17-1.24M343.19,82.09c.66,0,1.29.05,1.9.14-11.47,5.86-22.2,20.68-21.21,25.97.13.7.45,1.24.91,1.62-4.76-.1-8.01-1.64-9.18-4.37-1.31-3.06.11-7.4,3.61-11.06l.68-.71-.69-.69-.16-.16-.2-.2c.38-.29.75-.56,1.09-.78,4.53-2.92,15.14-9.76,23.25-9.76M390.82,82.1c.66,0,1.29.05,1.9.14-11.47,5.86-22.2,20.68-21.21,25.97.13.69.44,1.23.9,1.61-4.76-.1-8.01-1.64-9.17-4.37-1.31-3.06.11-7.4,3.61-11.06l.68-.71-.69-.69-.16-.16-.24-.24c.38-.27.75-.51,1.13-.73,4.53-2.92,15.14-9.76,23.25-9.76M260.32,82.36c2.27,0,3.19.17,3.56.3-.08.13-.23.34-.5.64l-.03.04-.03.04c-.26.36-1.18,1.41-2.33,2.74-9.31,10.69-14.47,17.4-13.25,20.07.2.43.72,1.15,2.07,1.15.48,0,1.04-.09,1.69-.27-2.67,1.21-5.55,2.1-8.72,2.5-2.96-.32-4.69-1.26-5.16-2.8-1.6-5.29,10.01-17.11,15.56-21.69l2.49-2.06c1.45-.33,2.99-.55,4.65-.65M308.61,82.41c.57,0,1.57.15,1.88,1.13.56,1.78-1.19,6.71-11.34,13.85l-.54.38-.18-.26-.85.92c-1.19,1.27-2.6,2.47-4.17,3.57,2-1.57,3.71-3.16,4.87-4.39l.23-.24.04-.33c1.18-10.08,6.59-14.62,10.06-14.62M776.02,82.53c.19,0,.38,0,.57.02h.03s.03,0,.03,0c2.62,0,3.72.15,4.17.29-.09.14-.25.34-.51.63l-.03.03-.03.04c-1.25,1.63-2.97,3.5-4.78,5.48-5.18,5.65-11.05,12.05-10.59,17.47l.08.93h.93c.93-.03,1.85-.17,2.76-.41-3.83,1.91-7.21,2.83-9.74,2.83-1.62,0-3.7-.37-4.39-2.16-1.21-3.18,2.03-10.64,14.79-22.03l2.79-2.49-.1.02c1.44-.41,2.8-.65,4.03-.65M142.46,82.54c.19,0,.37,0,.56.02h.03s.03,0,.03,0c2.63,0,3.72.15,4.17.29-.09.14-.24.34-.5.62-1.18,1.25-5.39,5.86-9.08,10.5-6.74,8.48-7,11-6.46,12.24.19.45.73,1.21,2.12,1.21.6,0,1.31-.14,2.18-.41-3.19,1.63-6.92,2.92-9.94,2.92s-4.59-1.22-5.09-3.72c.85-6.97,11.53-17.41,15.24-20.54l3.02-2.55-.27.06c1.42-.41,2.77-.64,3.99-.64M831.24,82.55c1.86,0,2.62.16,2.92.26-.07.14-.22.36-.5.7l-1.16,1.38c-4.11,4.9-10.31,12.3-13.3,17.44l-.04.07-.03.08c-.68,1.85-.72,3.12-.12,3.98.29.42.87.92,1.97.92,1.68,0,4.11-1.2,6.28-2.57-3.59,2.8-9.14,4.87-13.47,4.87-1.33,0-3.68-.22-4.56-1.72-.78-1.32-.37-3.51,1.18-6.34l.36-.66-.53-.53-.16-.16-.49-.49c1.35-1.29,2.75-2.73,4.05-4.19.03-.03.07-.07.11-.12,2.29-2.42,3.9-4.4,4.9-6.06l.82,4.43.34-5.18,1.38-1.43c3.93-4.09,4.81-4.67,9.63-4.67h.43M689.92,82.58c1.86,0,2.62.16,2.92.26-.07.14-.22.36-.5.7l-.04.05-.03.05c-.28.43-1.45,1.8-2.8,3.38-8.74,10.2-13.25,16.24-12,18.94.26.57.88,1.25,2.31,1.25.81,0,1.81-.21,3.08-.64l.11-.04.1-.06c1.33-.84,2.64-1.7,3.91-2.58-4.49,3.35-9.23,5.84-14.14,6-.16,0-.32.01-.48.01-2.25,0-3.87-.8-4.56-2.25-.8-1.66-.34-3.95,1.16-5.83l.56-.7-.63-.63-.16-.16-.53-.53c1.36-1.3,2.77-2.75,4.09-4.22.04-.04.08-.08.11-.12,2.29-2.42,3.9-4.4,4.9-6.06l.82,4.43.33-5.13,1.4-1.46c3.93-4.09,4.81-4.67,9.63-4.67h.43M351.34,82.95c2.27.64,3.63,1.86,4.07,3.65.97,3.98-2.84,10.71-8.49,14.99l-1.04.78-.06-.03-.48.37c-2.98,2.3-9.25,5.3-14.94,6.53,3.2-1.57,7.57-4.75,13.04-9.53l.45-.39-.13-.58c-.65-2.86,4.31-9.82,7.33-11.1l.39-.17.15-.4c.44-1.14.1-2.51-.2-3.71-.03-.13-.07-.27-.1-.42M398.96,82.96c2.27.64,3.63,1.86,4.07,3.65.97,3.98-2.84,10.71-8.49,14.99l-1,.76-.07-.03-.51.39c-2.97,2.29-9.21,5.28-14.88,6.52,3.2-1.57,7.55-4.75,13-9.5l.45-.39-.13-.58c-.65-2.86,4.31-9.82,7.33-11.1l.39-.17.15-.4c.44-1.14.1-2.51-.2-3.71-.03-.13-.07-.27-.1-.42M288.35,83.49c1.67,0,2.44.12,2.78.22-.04.06-.1.14-.17.23l-.03.03-.02.04c-.91,1.41-2.54,3.35-4.27,5.4-5.22,6.21-11.15,13.24-9.13,18.02l.2.48.51.11c.54.11,1.12.17,1.71.17.05,0,.09,0,.14,0-2.78.78-5.41,1.21-7.57,1.21-1.73,0-4.77-.29-5.63-2.22-.65-1.47-.61-5.2,7.03-13.64l.64-.71-.67-.67-.27-.27-.27-.27c1.52-1.34,3-2.66,4.41-3.91.97-.86,1.91-1.71,2.8-2.5,1.23-1.04,2.43-1.71,7.81-1.71M812.97,83.79l.4.92-.4-.92M812.93,83.81l.41.91-.41-.91M629.35,83.87c3.29.17,5.98.45,6.01,1.96v.37s.07.07.07.07c-.33,1.12-3.11,4.57-5.16,7.12-5.67,7.03-8.23,10.57-7.24,12.63.25.52.84,1.15,2.21,1.15.73,0,1.65-.17,2.8-.53l.09-.03.09-.05c1.42-.77,2.79-1.61,4.1-2.5-4.23,3.7-9.99,5.38-14.06,5.38-3.27,0-5.6-1-6.25-2.68-.96-2.5,1.54-6.66,6.86-11.43,2.62-2.41,4.93-4.24,6.79-5.72,3.17-2.52,4.62-3.66,4.15-5.05-.09-.28-.24-.51-.46-.7M502.46,90.53c1.4,0,4.69.46,4.97,4.71.08,1.52-1.31,2.66-2.92,3.98-1.72,1.4-3.68,3-3.74,5.42v.21s.07.19.07.19c1.32,3.29,4.01,5.32,8.02,6.09-3.95-.36-7.41-1.29-10-2.71-3.59-1.97-5.41-4.72-5.41-8.19v-.08c-.26-3.1,1.07-5.25,2.23-6.51,1.77-1.92,4.36-3.11,6.78-3.11M69.62,90.72c-3.71,2.76-7.12,5.25-10.24,7.46.52-.38,1.06-.77,1.61-1.17,2.67-1.95,5.6-4.08,8.62-6.29M907.03,93.75c1.33,0,2.96.47,3.21,2.73-.01,1.14-1.18,2.15-2.42,3.23-1.65,1.43-3.52,3.06-3.38,5.6v.12s.04.12.04.12c.71,2.29,1.88,3.47,3.03,4.06-4.69-.92-7.36-3.62-7.96-8.06l-.17-1.23c.06-.06.11-.11.16-.16l.23-.24.05-.33c.47-3.35,4.19-5.85,7.21-5.85M543.44,101.63c-6.45,3.86-15.01,7.88-24.23,9.19,8.31-1.52,17.63-5.48,24.23-9.19M712.55,104.67s-.01.01-.02.02c-.08.08-.15.16-.22.26-.06.08-.14.17-.21.29l-.03.05c-.06.09-.13.21-.19.35-.04.08-.06.15-.09.23-.03.07-.05.15-.08.23l-.02.07v.08c-.05.21-.09.5-.05.81l.02.17.08.15c.25.51.66,1.08,1.32,1.5-1.84-.48-2.79-1.19-2.87-1.74-.07-.47.48-1.36,2.35-2.46M528.75,26.01c-15.16,0-32.49,11.42-41.92,18.57-11.37,8.94-20.36,17.76-26.86,25.3-4.28,4.88-9.8,11.97-13.43,17.01l-.16-.11c.76-2.65-.43-5.52-5.09-5.74-.28,0-.56-.01-.85-.01-9.22,0-18.91,5.12-24.01,9.22-1.28,1-2.51,2.06-3.63,3.16-.14-.22-.31-.32-.51-.32-.45,0-1.04.49-1.72,1.12-2.99,2.4-8.57,8.5-13.55,8.5-.64,0-1.27-.1-1.88-.32,8.3-6.28,14.03-18.77,2.76-20.69-.44.76,1.02,3.5.43,5.03-3.3,1.4-8.7,8.79-7.91,12.24-8.66,7.55-13.75,10.41-16.2,10.41-6.72,0,6.64-21.67,21.4-27.36-1.47-.65-3.1-.93-4.81-.93-8.07,0-18.11,6.25-23.79,9.92-5.42,3.16-10.78,11.57-17.68,11.57-.6,0-1.2-.06-1.82-.2,8.3-6.28,14.03-18.77,2.76-20.69-.44.76,1.02,3.5.43,5.03-3.3,1.4-8.7,8.79-7.91,12.24-8.66,7.55-13.75,10.41-16.2,10.41-6.72,0,6.64-21.67,21.4-27.36-1.47-.65-3.1-.93-4.81-.93-8.07,0-18.11,6.25-23.79,9.92-3.85,2.52-10.08,9.47-15.29,9.47-1.59,0-3.09-.65-4.39-2.27,14.49-10.19,13.36-16.79,8.89-16.79-3.73,0-9.78,4.59-11.06,15.5-3.7,3.88-11.64,10.28-17.61,10.28-.52,0-1.02-.05-1.5-.15-2.45-5.8,9.87-17.15,13.32-22.49,1.09-1.41.6-2.06-3.41-2.06-5.52,0-6.98.71-8.45,1.95-7.85,6.95-17.99,16.5-27.52,21.29-1.12.41-1.96.6-2.57.6-6.27,0,12.75-20.2,14.32-22.37,1.57-1.79,1.3-2.6-3.84-2.6-14.82.88-20.69,11.37-31.81,19.55-5.39,3.82-8.57,5.47-10.03,5.47-9.27,0,50.4-66.41,52.11-67.23-1.03-1.06-2.29-1.54-3.73-1.54-13.6,0-43.34,42.99-48.75,49.26l-.16-.11c.61-4.39-2.29-5.81-6.19-5.81-5.16,0-12.05,2.49-14.82,3.86-12.19,4.54-19.78,15.68-30.65,21.01-.69.18-1.27.27-1.75.27-13.21,0,45.39-64.2,48.98-66.73-1.11-1.13-2.45-1.64-3.97-1.64-13.63,0-41.76,40.91-47.7,46.87-10.2,8.16-15.78,15.29-25.94,21.23-1.11.41-1.95.6-2.55.6-6.22,0,11.73-19.71,14.14-22.26,1.84-2,1.08-2.6-4.39-2.6-.2-.01-.41-.02-.62-.02-8.72,0-22.62,10.39-25.48,15.83,4.71-1.76,13.17-11.43,18.09-12.46-3.49,2.95-14.82,13.83-15.6,21.34.61,3.42,3.02,4.68,6.1,4.68,5.64,0,13.51-4.24,16.48-7.12,6.07-4.79,10.97-9.88,16.41-14.67l.16.16c-5.52,6.84-16.46,20.33-2.55,21.55,11-.37,20-9.55,27.19-15.87l.16.16c-6.52,6.28-7.28,15.74,2.76,15.74.32,0,.65,0,.98-.03,7.8-.11,15.6-6.12,19.82-9.86l.16.16c-3.24,3.98-1.81,9.73,3.87,9.73.27,0,.55-.01.84-.04,15.24-.59,27.17-21.08,40.69-26.54-4.61,3.81-26.72,24.53-9.75,26.27,13.04-1.59,21-10.97,30.11-17.98l.27.27c-11.52,12.75-8.29,17.54-.65,17.54s19.77-4.84,25.79-11.3c1.43,2.1,3.27,2.92,5.29,2.92,5.17,0,11.48-5.4,14.76-8.49l.16.16c-6.95,7.27-6.26,17.12,6.77,17.12.14,0,.29,0,.43,0,6.55,0,16.03-4.06,20.25-7.31,1.12.51,2.24.74,3.35.74,6.33,0,12.28-7.35,16.65-10.71l.16.16c-6.95,7.27-6.26,17.12,6.77,17.12.14,0,.29,0,.43,0,6.55,0,16.03-4.06,20.25-7.31,1.07.56,2.16.8,3.25.8,4.72,0,9.5-4.48,12.81-7.29-4.61,5.73-3.59,13.9,4.68,13.9.37,0,.75-.02,1.14-.05,7.69-.11,15.6-5.9,19.93-9.86l.16.16c-3.25,3.99-1.8,9.73,3.88,9.73.27,0,.54-.01.83-.04,5.26,0,9.75-2.49,15.49-6.93,3.09-2.44,7.74-6.5,9.75-8.45,1.03-.97,1.95-1.9,1.46-2.38-.1-.1-.21-.14-.35-.14-.54,0-1.3.69-1.82,1.17l.07.04c-1.89,1.73-4.49,4.01-7.91,6.77-2.6,2.11-5.36,4.01-6.99,4.71-.92.42-1.97.75-2.82.75-.45,0-.85-.1-1.13-.32-.65-.49-.65-1.79.16-3.2,1.25-2.27,8.67-12.4,13.92-19.01,13-16.42,27.57-34.45,34.39-40.78,8.61-7.8,15.76-12.19,30.77-12.19,13.48,0,21.23,6.34,20.74,13.32-.16,2.11-.81,3.25-.49,3.41.02,0,.04.01.06.01.51,0,1.4-1.72,1.56-3.75.97-8.94-4.88-17.87-18.36-17.87h0ZM210.41,83.91c1.23-.66,2.26-1.04,3.02-1.04.12,0,.23,0,.33.03.15.03.29.06.43.1.02,0,.03,0,.05,0,.49.05.92.22,1.29.51h0c.55.47.95,1.2,1.14,2.27h0v.03s-.01.08-.01.12c0,.08-.03.16-.05.26-.43,2.37-3.09,5.6-5.95,8.62,0,.03-.04.05-.07.08-1.71,1.91-3.59,3.81-5.34,5.38-.46.37-.95.76-1.46,1.17-.25.21-.52.42-.78.63-.4.31-.82.64-1.24.96-.14.1-.28.2-.42.32-.28.2-.57.41-.86.63-.14.1-.29.21-.43.31-.44.31-.88.61-1.32.9-.29.19-.58.37-.87.55-.35.22-.69.42-1.03.6-.19.11-.38.21-.56.3-.1.05-.19.1-.28.15-.04.02-.08.04-.12.05-.2.1-.39.19-.58.27h0c-.28.13-.55.24-.81.33-.2.07-.4.14-.6.19-.59.17-1.15.26-1.66.26-.43,0-.83-.06-1.2-.2-.13-.05-.25-.11-.36-.17-.23-.13-.45-.3-.64-.5-.1-.1-.19-.21-.28-.33-.09-.13-.17-.26-.25-.4-.06-.16-.07-.37-.03-.62.01-.07.02-.15.04-.23.01-.02.01-.06.02-.09,0-.03,0-.06.02-.09.51-1.78,2.73-4.97,5.69-8.39.16-.17.31-.34.45-.51,4.41-4.98,10.28-10.32,14.71-12.45h0ZM418.12,105.8c0-.22.02-.47.08-.73.07-.39.21-.81.4-1.28.01,0,.01-.03.02-.04.14-.32.3-.66.5-1.02.04-.09.1-.18.15-.28.05-.09.11-.18.16-.28t0-.01c.15-.25.31-.5.48-.77.02-.03.04-.05.05-.08.12-.15.23-.32.34-.48.16-.24.34-.48.54-.74.07-.1.15-.21.24-.32.08-.11.17-.22.26-.34.45-.57.96-1.18,1.52-1.81.13-.16.28-.32.43-.48.54-.61,1.14-1.24,1.79-1.9.22-.22.44-.45.67-.67.18-.19.36-.37.55-.55.19-.19.38-.37.58-.56,5.96-5.85,12.02-10.56,15.27-10.56,1.79,0,3.09.81,2.92,2.92,0,.07-.01.14-.03.22-.01.06-.02.13-.04.2-.05.23-.14.48-.26.76-.04.1-.09.21-.15.33-.37.78-.94,1.7-1.65,2.71-.1.14-.2.27-.3.41-.43.6-.92,1.23-1.44,1.87-.27.34-.55.68-.85,1.03-1.46,1.73-3.12,3.51-4.76,5.11-.5.48-.99.95-1.48,1.4-.15.14-.31.28-.46.42-.41.38-.82.74-1.23,1.09-.26.23-.52.45-.78.66-.29.24-.56.46-.84.66-.05.05-.11.09-.16.13-.32.26-.64.49-.95.72-.26.19-.52.38-.78.55-.69.48-1.36.91-2.01,1.29-.29.17-.58.34-.87.49-.19.11-.38.2-.56.29-.37.2-.74.37-1.1.53-.52.23-1.02.43-1.5.57-.95.32-1.79.47-2.49.47-.36,0-.68-.04-.97-.12-.28-.08-.51-.2-.7-.36-.53-.42-.73-1.16-.52-2.18-.05.26-.08.51-.08.73h0ZM216.68,85.79c-.19-1.07-.59-1.8-1.14-2.26.88.54,1.21,1.32,1.14,2.26h0ZM195.24,96.88c-2.96,3.42-5.18,6.61-5.69,8.39.45-1.94,2.71-5.07,5.69-8.39h0ZM419.12,102.73c-.2.36-.36.7-.5,1.02.13-.32.3-.66.5-1.02h0ZM418.6,103.79c-.19.47-.33.89-.4,1.28.07-.39.2-.81.4-1.28h0ZM788.64,26.34c-28.22,1.91-52.27,26.62-68.13,43.55-11.32,14.05-22.93,26.25-37.97,35.74-1.19.4-2.1.59-2.76.59-6.92,0,11.86-19.72,13.33-22.04,1.57-1.89,1.01-2.6-3.19-2.6-.14,0-.29,0-.44,0-5.09,0-6.23.71-10.34,4.98.29-4.23-2.6-5.61-6.41-5.61-5.07,0-11.77,2.45-14.76,3.88-12.03,4.59-19.16,14.9-30.22,20.86-1.08.33-1.9.48-2.51.48-6.72,0,12.8-18.48,11.12-20.36-.12-6.16-21.13,1.22-7.64-9.64-.9-1.18-2.37-1.68-4.01-1.68-4.97,0-11.41,4.59-7.47,8.57-8.27,8.03-18.86,20.43-30.97,21.56,9.26-15.11,20.09-31.63,30.17-45.61,5.13-6.05,11.07-16.94,18.37-16.94,1.71,0,3.49.6,5.35,1.99.32-3.08-3.25-3.98-9.21-4.23-21.27.98-37.16,17.29-52.92,32.22-5.21-9.21-12.24-12.86-18.86-12.86-15.95,0-29.52,21.22-9.52,37.12-5.78,4.95-24.39,14.15-36.86,14.15-5.21,0-9.35-1.61-11.03-5.8.1-4,6.88-5.48,6.66-9.48-.26-3.93-2.9-5.66-5.96-5.66-4.76,0-10.55,4.17-10.02,10.7,0,8.1,9.09,12.06,20.16,12.06,1.22,0,2.47-.05,3.73-.14,15.27-1.14,28.98-10.13,34.94-14.52,5.34,4.18,14.74,7.49,21.23,8.18-.97,2.11-3.55,4.83.78,4.83.48,0,1.05-.03,1.71-.11,5.68-.6,8.17-1.62,10.45-4.28,13.67-.91,24.42-13.95,33.08-22.53,16.76.29,10.65.81-.32,10.89-11.88,10.65-7.59,15.85.06,15.85,5,0,11.44-2.22,15.75-6.59,4.14-3.19,7.39-6.19,10.3-8.83l.16.16c-6.88,6.62-7.1,15.73,2.9,15.73.27,0,.55,0,.84-.02,7.8-.11,15.6-6.12,19.82-9.86l.16.16c-3.19,4-2.2,9.7,4.18,9.7.17,0,.35,0,.53-.01,12.03-.4,22.62-13.78,31.74-21.22l.16.11c-4.35,5.53-9.03,12.25-12.03,17.66-1.31,1.91.52,2.62,3.05,2.62,3.1,0,7.26-1.07,8.04-2.3,8.43-8.48,21.84-22.03,32.28-23.72,2.76,0,2.17,3.09,1.52,4.88-2.86,8.79-9,9.79-17.92,11.86-15.83,4.56-11.6,9.62-1.91,9.62,6.14,0,14.47-2.03,21.29-7.51,8.16-6.08,17.39-20.5,2.93-21.83h.01c-13.14.49-21.3,9.17-30,16.34l-.27-.16c19.31-24.18,40.41-66.07,73.8-66.06.53,0,1.06.01,1.59.03,12.19,0,19.82,6.01,19.34,13-.32,2.21-.22,3.12.02,3.12,1.13,0,5.32-20.46-17.9-20.99h0ZM580.01,93.62c1.34-5.66,1.14-14.27-1.19-19.98,14.17-13.53,31.07-31.47,52.21-32.34v.16c-.58.14-1.15.3-1.73.49-.25.07-.49.15-.73.24-.05.02-.09.03-.14.05-.3.1-.59.21-.88.33-.23.09-.46.18-.7.28-.17.08-.35.15-.52.23-.29.13-.58.26-.86.4-.32.14-.63.3-.94.46-.32.16-.63.33-.94.5-.28.15-.56.31-.84.47-.66.38-1.32.79-1.98,1.22-.29.18-.58.37-.87.57-.45.3-.9.61-1.35.94-.04.03-.07.05-.11.08-.02.01-.04.03-.06.04-.05.04-.11.08-.16.12-.41.3-.81.61-1.22.91-.02.02-.04.04-.06.04-.3.24-.61.48-.91.72-.31.24-.61.49-.91.74-.43.35-.86.72-1.29,1.08-.23.2-.45.39-.67.59-.23.19-.46.39-.68.6-.41.36-.82.73-1.22,1.11-.43.4-.85.8-1.28,1.21-.42.4-.85.82-1.27,1.24-.42.42-.84.85-1.26,1.27-.06.06-.11.11-.16.16-.37.38-.74.76-1.1,1.15-.42.44-.83.89-1.25,1.34-.61.65-1.21,1.32-1.8,1.99-.6.67-1.19,1.35-1.78,2.04-1.11,1.29-2.2,2.61-3.28,3.94-1.08,1.34-2.14,2.68-3.18,4.04-1.04,1.36-2.06,2.72-3.06,4.08s-1.97,2.72-2.92,4.07c-1.12,1.6-2.21,3.18-3.26,4.72-.1.15-.2.3-.3.45-1.93,2.88-3.73,5.66-5.35,8.25h0ZM555.85,64.19c1.71-.96,3.6-1.5,5.59-1.5,2.29,0,4.71.71,7.15,2.29,0,.01.02.01.03.02.01.01.02.01.03.02,0,.01.02.01.03.02,3.11,1.69,5.9,4.49,7.76,8.43-.49.45-1,.92-1.51,1.39-.52.47-1.05.95-1.58,1.44-2.01,1.83-4.15,3.75-6.33,5.67-.87.78-1.74,1.54-2.62,2.3-.44.38-.87.76-1.31,1.14-.77.67-1.55,1.33-2.31,1.98-.77.65-1.53,1.28-2.28,1.91-2,1.66-3.92,3.2-5.68,4.54-.22-.27-.45-.55-.65-.85-.13-.16-.24-.32-.35-.49-.02-.03-.03-.05-.05-.08,0-.01-.02-.03-.03-.04-.02-.03-.04-.06-.06-.09-.11-.14-.21-.29-.3-.45-3.32-5.08-4.2-10.56-3.42-15.39,0-.02,0-.05,0-.07.53-6.3,3.72-10.37,7.87-12.19h0ZM573.29,104.18c-6.83-.95-15.01-4.41-19.23-8.89,7.05-5.55,15.9-13.61,23.18-20.26.65,1.37,1.12,3.25,1.42,5.37.03.21.06.42.09.64.21,1.74.32,3.61.32,5.46,0-1.85-.1-3.72-.32-5.46.15,1.06.26,2.17.33,3.31.08,1.71.03,3.58-.12,5.38,0,.17-.02.33-.04.49-.19,2.45-.58,4.67-1.16,6.25-.11.32-.23.62-.36.88h0c-.65,1.14-2.82,4.55-4.12,6.83h0ZM671.5,83.85c1.17-.63,2.17-.98,2.89-.98.12,0,.23,0,.34.03.15.03.29.06.43.1-.14-.02-.28-.02-.43-.02.15,0,.29,0,.43.02.02,0,.03,0,.05,0h0c.49.05.91.22,1.28.51h.01c.55.47.95,1.2,1.14,2.23v.07s0,.08,0,.12c-.01.08-.03.16-.05.26-.43,2.37-3.09,5.6-5.95,8.62-.02.03-.04.05-.07.08-1.71,1.91-3.59,3.81-5.34,5.38-.46.37-.95.76-1.46,1.17-.25.21-.52.42-.78.63-.4.31-.82.64-1.24.96-.14.1-.28.21-.42.32-.28.2-.57.41-.86.63-.14.1-.29.21-.43.31-.44.31-.88.61-1.32.9-.29.19-.58.37-.87.55-.35.22-.69.42-1.03.6-.19.11-.38.21-.56.3-.1.05-.19.1-.28.15-.04.02-.08.04-.12.05-.2.1-.39.19-.58.27h-.01c-.28.13-.55.24-.81.33-.1.04-.2.07-.3.1-.1.04-.2.06-.3.09-.58.17-1.13.26-1.64.26-.08,0-.16,0-.24,0-.02,0-.04,0-.05,0,0,0-.02,0-.02,0,0,0-.02,0-.02,0-.1-.01-.21-.02-.31-.04-.1,0-.2-.03-.29-.06-.1-.02-.19-.06-.28-.09-.13-.05-.25-.11-.36-.17-.46-.26-.86-.66-1.17-1.23-.05-.13-.06-.29-.04-.48-.01-.04,0-.09.01-.14.01-.07.02-.15.04-.23,0-.02.01-.06.02-.09s.02-.06.02-.09c.51-1.78,2.73-4.97,5.69-8.39.16-.17.31-.34.45-.51,4.41-4.98,10.28-10.32,14.71-12.45h.01s.08-.05.12-.07h0ZM677.65,85.75c-.19-1.03-.59-1.76-1.14-2.22.87.54,1.2,1.3,1.14,2.22h0ZM656.21,96.88c-2.96,3.42-5.18,6.61-5.69,8.39.45-1.94,2.71-5.07,5.69-8.39h0ZM731.29,98.81c-.24.32-.52.67-.83,1.03-.13.15-.26.3-.39.44-.09.11-.19.21-.29.31-1.84,2.04-3.8,3.64-5.96,5.04-.05.03-.11.06-.17.1-.03.02-.07.04-.11.06-2.43,1.57-5.01,2.7-7.23,2.7-.24.02-.47.04-.69.04-1.31,0-2.41-.42-2.97-1.59-.02-.18,0-.36.03-.54.02-.06.03-.12.06-.18.02-.06.04-.12.07-.18.04-.1.1-.19.16-.29.04-.07.09-.13.14-.19.05-.07.1-.13.16-.19.06-.07.12-.13.18-.19.17-.17.37-.33.59-.48.22-.16.46-.31.72-.46.17-.1.36-.19.55-.29.59-.3,1.27-.58,1.99-.85.2-.08.4-.15.61-.22.24-.08.48-.17.73-.25.37-.12.75-.24,1.14-.36.26-.08.52-.16.78-.23.79-.23,1.59-.45,2.39-.66.23-.06.46-.12.69-.18.06-.02.13-.04.19-.05.23-.07.47-.13.7-.19.82-.21,1.61-.42,2.36-.62.09-.03.18-.06.27-.08.2-.06.4-.11.59-.16.15-.04.29-.08.43-.13.19-.06.38-.11.56-.17.13-.04.26-.08.38-.12.17-.06.34-.11.5-.17.12-.04.24-.08.35-.12.53-.19.97-.38,1.32-.58h0ZM142.99,37.31c-1.71,0-2.23.69.42,1.71,8.07,17.13-37.66,49.66-49.45,61.75l-.11-.16c5.2-6.99,8.5-21.5,10.94-31.58,18.15-13.61,17.02-21.99,10.32-21.99-6.34,0-17.69,7.52-22.39,25.23-10.1,7.84-28.73,21.3-38.35,28.33l-.11-.16c9.89-10.97,27.94-29.38,28.71-45.17-1.2-10.54-9.59-14.41-19.47-14.41-10.96,0-23.74,4.76-30.57,10.45-13.35,9.22-20.7,30.52-2.39,33.21.06,0,.12,0,.18,0,13.41,0,25.8-10.97,26.52-23.13-.19-3.38-.99-6.22-2.98-6.44,4.6,10.8-12.56,28.27-23.24,28.27-.05,0-.1,0-.15,0-5.74-.33-7.64-5.04-6.99-10.56,1.98-15.14,21.5-30.23,37.23-30.23.03,0,.06,0,.09,0,30.48,3.71-16.58,56.34-25.19,65.76-1.32,2.87-.94,4.08.65,4.08,8.78,0,54.43-36.98,55.25-37.34-3.4,9.34-6.74,24.03-12.03,32.33-.87,1.3-1.95,4.28,1.84,4.28,3.57,0,6.61-2.98,8.12-4.49,8.72-8.56,22.26-19.34,35.1-29.9,18.04-14.79,26.38-24.16,27.13-30.82,1.07-6.73-5.97-9.02-9.08-9.02h0ZM105.27,66.31c.53-1.96,1.16-4.26,1.92-6.55.62-1.9,1.34-3.79,2.14-5.47,1.08-2.26,2.25-3.8,3.36-4.74.95-.81,1.86-1.18,2.62-1.18.84,0,1.51.45,1.88,1.26.19.43.3.95.3,1.57,0-.62-.11-1.14-.3-1.57.53.85.64,2.11.21,3.63-.43,1.48-1.37,2.98-2.56,4.43-.01.01-.01.02-.02.03-1.91,2.61-4.96,5.56-9.55,8.59h0ZM112.69,49.55c-1.11.94-2.28,2.48-3.36,4.74-.8,1.68-1.52,3.57-2.14,5.47,1.15-3.96,2.67-8.1,5.5-10.21h0ZM117.49,51.2c0,1.64-.76,3.89-2.65,6.49,1.89-2.6,2.65-4.85,2.65-6.49h0ZM791.33,59.54c-3.74,0-6.5.65-7.91,3.84-1.02,2.33-.77,5.53.16,6.83.13.05.29.08.47.08,3.56,0,16.14-9.43,7.28-10.75h0ZM157.82,59.54c-3.74,0-6.5.65-7.91,3.84-1.02,2.33-.77,5.53.16,6.83.13.05.29.08.47.08,3.56,0,16.14-9.43,7.28-10.75h0ZM561.26,63.08h0s0,0,0,0c0,0,0,0,0,0h0ZM561.26,63.08h0,0ZM561.25,63.08c-1.84,0-3.64.36-5.3,1.07,1.66-.71,3.46-1.07,5.3-1.07h0ZM561.26,63.08c2.44,0,4.94.62,7.28,1.87-2.33-1.25-4.84-1.87-7.28-1.87h0ZM555.96,64.15s-.02,0-.02,0c0,0,.02,0,.02,0h0ZM555.93,64.16s0,0,0,0c0,0,0,0,0,0h0ZM555.93,64.16s-.02,0-.03.01c0,0,.02,0,.03-.01h0ZM555.9,64.17s-.03.01-.05.02c.02,0,.03-.01.05-.02h0ZM568.54,64.95s.04.02.05.03c-.02,0-.04-.02-.05-.03h0ZM936.37,74.73c-2.72,0-6.28,3.52-7.04,5.56-4.41,4.74-14.01,9.67-17.88,14.3,4.59-.61,12.49-8.06,16.47-11.21l.11.16c-1.79,2.44-4.28,11.86-7.64,17.22-2.59,4.67-7.04,8.4-10.53,8.4-1.93,0-3.56-1.15-4.42-3.91-.22-3.94,5.85-5.43,5.8-8.83-.26-2.57-2.05-3.67-4.21-3.67-3.38,0-7.65,2.72-8.2,6.71-1.63,1.67-9.07,7.01-12.02,7.01-1.3,0-1.72-1.04-.39-3.88,2.79-5.28,20.25-20.4,4.77-21.56-12.71.5-27.49,14.7-35.69,21.07l-.27-.27c3.1-5.09,19.6-19.27,5.36-20.81-12.34,1.16-19.88,12.66-29.74,19.87-2.04,1.89-7.34,5.49-9.87,5.49-1.3,0-1.87-.95-.91-3.55,3.23-5.56,10.23-13.74,14.36-18.68,1.57-1.89,1.01-2.6-3.19-2.6-.14,0-.29,0-.44,0-5.09,0-6.23.71-10.34,4.98-.19-4.24-2.88-5.78-6.64-5.78-8.03,0-20.93,7.01-24.71,9.68-7.11,4.13-14.77,15.85-23.24,15.98-.58-6.82,10.44-16.09,15.17-22.26,1.84-2,1.08-2.6-4.39-2.6-.21-.01-.42-.02-.63-.02-8.71,0-22.62,10.4-25.47,15.83,4.71-1.76,13.17-11.43,18.09-12.46-18.81,16.8-18.13,25.94-9.74,25.94,6.26,0,16.81-5.09,26.75-15.87l.16.16c-6.88,6.62-7.1,15.73,2.9,15.73.27,0,.55,0,.84-.02,7.8-.11,15.6-6.12,19.82-9.86l.16.16c-3.79,6.89-.71,9.54,4.26,9.54s12.34-2.86,15.94-6.78c7.27-4.79,16.74-17.29,24.76-18.63.54.49.22,1.3-.6,2.44-3.88,5.26-11.51,14.17-14.19,19.66-1.27,2.04.46,2.73,2.88,2.73,3.09,0,7.31-1.13,7.89-2.03,9.26-7.32,20.39-16.99,30.54-22.32,2.1-.9,3.48-1.3,4.29-1.3,5.29,0-13.53,16.82-11.93,20.21.06,4.36,2.53,5.94,5.94,5.94,6.49,0,16.36-5.75,19.25-8.92.91,6.72,6.17,9.28,12.97,9.28,13.52,0,33.12-10.14,36.57-17.79-.11-.1-.24-.15-.37-.15-.48,0-1.1.53-1.72,1.03-2.94,2.94-12.19,10.2-17.44,11.81,11.88-10.56,1.45-18.13,4.33-24.26,2.24-1.37,11.11-6.62,3.96-6.83-.16-.03-.32-.04-.49-.04h0ZM812.84,83.85c1.17-.63,2.17-.98,2.89-.98.12,0,.23,0,.34.03.15.03.29.06.43.1-.14-.02-.28-.02-.43-.02.15,0,.29,0,.43.02.02,0,.03,0,.05,0h.01c.49.05.91.22,1.28.51h0c.55.47.95,1.2,1.14,2.23v.07s-.01.08-.01.12c-.01.08-.03.16-.05.26-.43,2.37-3.09,5.6-5.95,8.62-.02.03-.04.05-.07.08-1.71,1.91-3.59,3.81-5.34,5.38-.46.37-.95.76-1.46,1.17-.25.21-.52.42-.78.63-.4.31-.82.64-1.24.96-.14.1-.28.21-.42.32-.28.2-.57.41-.86.63-.14.1-.29.21-.43.31-.44.31-.88.61-1.32.9-.29.19-.58.37-.87.55-.35.22-.69.42-1.03.6-.19.11-.38.21-.56.3-.1.05-.19.1-.28.15-.04.02-.08.04-.12.05-.2.1-.39.19-.58.27h-.01c-.28.13-.55.24-.81.33-.1.04-.2.07-.3.1-.1.04-.2.06-.3.09-.58.17-1.13.26-1.64.26-.08,0-.16,0-.24,0-.02,0-.03,0-.05,0,0,0-.02,0-.03,0,0,0,0,0,0,0,0,0-.01,0-.02,0-.1-.01-.21-.02-.31-.04-.1,0-.2-.03-.29-.06-.1-.02-.19-.06-.28-.09-.13-.05-.25-.11-.36-.17-.46-.26-.86-.66-1.17-1.23-.05-.13-.06-.29-.04-.48,0-.04,0-.09.01-.14,0-.07.02-.15.04-.23,0-.02,0-.06.02-.09,0-.03.02-.06.02-.09.51-1.78,2.73-4.97,5.69-8.39.16-.17.31-.34.45-.51,4.41-4.98,10.28-10.32,14.71-12.45h0s.08-.05.12-.07c.01,0,.02-.01.04-.02-.01,0-.02.01-.04.02h0ZM818.99,85.75c-.19-1.03-.59-1.76-1.14-2.22.87.54,1.2,1.3,1.14,2.22h0ZM797.55,96.88c-2.96,3.42-5.18,6.61-5.69,8.39.45-1.94,2.71-5.07,5.69-8.39h0ZM547.96,76.45c-.04.46-.06.93-.07,1.41-.02.41-.03.81-.03,1.21,0-.4,0-.8.03-1.21,0-.48.03-.95.07-1.41h0ZM547.86,79.07c0,5.12,1.52,9.59,3.52,12.77-1.99-3.18-3.52-7.65-3.52-12.77h0ZM816.07,82.98h0ZM816.07,82.98s0,0-.01,0c0,0,0,0,.01,0h0ZM674.73,82.98h0,0ZM674.73,82.98s0,0,0,0c0,0,0,0,0,0h0ZM674.73,82.98c-.89,0-1.94.3-3.1.82,1.16-.52,2.21-.82,3.1-.82h0ZM816.06,82.98c-.86,0-1.86.28-2.97.76,1.11-.48,2.12-.76,2.97-.76h0ZM213.77,82.98h0,0ZM213.77,82.98s0,0-.01,0c0,0,0,0,.01,0h0ZM213.77,82.98c.14,0,.27,0,.4.02-.13-.01-.26-.02-.4-.02h0ZM213.76,82.98c-.92,0-2,.32-3.21.87,1.21-.55,2.29-.87,3.21-.87h0ZM214.17,83s.01,0,.02,0c0,0-.01,0-.02,0h0ZM813.09,83.74s0,0-.01,0c0,0,0,0,.01,0h0ZM813.08,83.75s-.07.03-.11.05c.04-.02.07-.03.11-.05h0ZM812.97,83.79s-.03.01-.04.02c.01,0,.03-.01.04-.02h0ZM671.63,83.79s-.03.02-.05.02c.02,0,.03-.02.05-.02h0ZM812.93,83.81s-.04.02-.05.02c.02,0,.04-.02.05-.02h0ZM671.58,83.82s-.05.02-.08.03c.03-.01.05-.02.08-.03h0ZM210.55,83.85s0,0,0,0c0,0,0,0,0,0h0ZM210.54,83.85s-.01,0-.02,0c0,0,.01,0,.02,0h0ZM210.52,83.86s-.01,0-.02.01c0,0,.01,0,.02-.01h0ZM210.5,83.87s-.02,0-.03.01c.01,0,.02,0,.03-.01h0ZM210.47,83.89s-.01,0-.02,0c0,0,.01,0,.02,0h0ZM210.45,83.9s-.02.01-.04.02c.01,0,.02-.01.04-.02h0ZM818.93,86.2c-.41,1.82-2.92,5.25-5.95,8.62,3.03-3.37,5.54-6.8,5.95-8.62h0ZM677.59,86.2c-.41,1.82-2.92,5.25-5.95,8.62,3.03-3.37,5.54-6.8,5.95-8.62h0ZM216.62,86.2c-.41,1.82-2.92,5.25-5.95,8.62,3.03-3.37,5.54-6.8,5.95-8.62h0ZM579.07,86.5c0,1.09-.04,2.18-.11,3.23.07-1.05.11-2.14.11-3.23h0ZM948.12,93.13s-.01.03-.02.04t.02,0v-.05h0ZM731.29,98.81c-.28.35-.56.7-.83,1.03.27-.33.55-.68.83-1.03h0ZM723.54,105.79c-1.53.85-4.65,2.44-7.23,2.7,2.58-.26,5.7-1.85,7.23-2.7h0ZM418.12,105.8c0,.65.21,1.13.6,1.45-.39-.32-.6-.8-.6-1.45h0ZM796.2,107.64s-.06.02-.09.03c.03,0,.06-.02.09-.03h0ZM654.86,107.64s-.02,0-.02,0c0,0,.02,0,.02,0h0ZM193.89,107.64s-.02,0-.03,0c0,0,.02,0,.03,0h0ZM654.84,107.65s0,0,0,0c0,0,0,0,0,0h0ZM193.86,107.65s-.04,0-.05.01c.02,0,.04,0,.05-.01h0ZM654.83,107.65s-.01,0-.02,0c0,0,.01,0,.02,0h0ZM654.81,107.66s-.01,0-.02,0c0,0,.01,0,.02,0h0ZM654.8,107.66s-.02,0-.03,0c0,0,.02,0,.03,0h0ZM193.81,107.66c-.56.15-1.09.24-1.58.24.49,0,1.02-.08,1.58-.24h0ZM654.77,107.67c-.55.15-1.08.24-1.56.24.49,0,1.01-.09,1.56-.24h0ZM796.11,107.67s-.01,0-.02,0c0,0,.01,0,.02,0h0ZM796.09,107.67s0,0,0,0c0,0,0,0,0,0h0ZM796.09,107.67c-.54.15-1.06.23-1.54.23.48,0,1-.09,1.54-.23h0ZM191.03,107.7c.36.14.76.2,1.19.2-.43,0-.83-.06-1.19-.2h0ZM794.22,107.89s.01,0,.02,0c0,0,0,0,0,0,0,0,.02,0,.03,0,.02,0,.03,0,.05,0-.03,0-.07,0-.1,0h0ZM652.88,107.89s.01,0,.02,0c0,0,.02,0,.02,0,.02,0,.03,0,.05,0-.03,0-.07,0-.1,0h0ZM794.32,107.9h0c.07,0,.14,0,.21,0-.07,0-.14,0-.21,0h0ZM652.98,107.9h0c.07,0,.14,0,.21,0-.07,0-.14,0-.21,0h0ZM192.23,107.9s0,0,0,0h0s0,0,0,0h0ZM192.22,107.9s0,0,0,0h0s0,0,0,0h0ZM794.55,107.9s-.01,0-.02,0h0s.01,0,.02,0h0ZM653.21,107.9s0,0-.01,0h0s0,0,.01,0h0ZM794.53,107.9h0,0ZM653.19,107.9h0,0Z"/>
        </g>
      </g>
    </g>
  </g>
</svg>